<svg xmlns="http://www.w3.org/2000/svg" width="720" height="140" viewBox="0 0 720 140" font-family="-apple-system,BlinkMacSystemFont,Segoe UI,Helvetica,Arial,sans-serif"><style>svg{--cf-bg:#0d1117;--cf-bg-alt:#161b22;--cf-border:#21262d;--cf-text:#e6edf3;--cf-text-dim:#8b949e;--cf-text-faint:#6e7681;--cf-accent:#a78bfa;--cf-accent-soft:rgba(167,139,250,0.16);--cf-green:#3fb950;--cf-amber:#d29922;--cf-red:#f85149;--cf-spark:#a78bfa;--cf-spark-bg:rgba(167,139,250,0.18)}@media (prefers-color-scheme: light){svg{--cf-bg:#ffffff;--cf-bg-alt:#f6f8fa;--cf-border:#d0d7de;--cf-text:#1f2328;--cf-text-dim:#656d76;--cf-text-faint:#8c959f;--cf-accent:#6f42c1;--cf-accent-soft:rgba(111,66,193,0.12);--cf-green:#1a7f37;--cf-amber:#9a6700;--cf-red:#cf222e;--cf-spark:#6f42c1;--cf-spark-bg:rgba(111,66,193,0.12)}}</style><rect width="720" height="140" rx="12" fill="var(--cf-bg)" stroke="var(--cf-border)"/><text x="18" y="26" font-size="13" font-weight="600" fill="var(--cf-text)">michiel/layercake-tool</text><text x="702" y="26" text-anchor="end" font-size="10" fill="var(--cf-text-faint)" font-family="ui-monospace,SFMono-Regular,Menlo,monospace">@248b681</text><g transform="translate(18,46)"><text x="0" y="0" font-size="9" font-weight="600" fill="var(--cf-text-dim)" letter-spacing="0.8">HEALTH</text><text x="0" y="58" font-size="56" font-weight="700" fill="var(--cf-amber)" font-family="ui-monospace,SFMono-Regular,Menlo,monospace">D</text><text x="84" y="58" font-size="20" font-weight="600" fill="var(--cf-text)">67</text><text x="84" y="74" font-size="8" fill="var(--cf-text-faint)" letter-spacing="0.6">/100</text></g><g transform="translate(166,46)"><text x="0" y="0" font-size="9" font-weight="600" fill="var(--cf-text-dim)" letter-spacing="0.8">FILES</text><text x="0" y="28" font-size="22" font-weight="700" fill="var(--cf-text)">856</text><g transform="translate(0,40)"><svg width="64" height="14" viewBox="0 0 64 14" preserveAspectRatio="none"><path d="M0 1 L5.82 0.75 L11.64 0.75 L17.45 0.5 L23.27 0 L29.09 1.5 L34.91 1.5 L40.73 6.5 L46.55 14 L52.36 9.5 L58.18 9.25 L64 9.25 L64 14 L0 14 Z" fill="var(--cf-spark-bg)" stroke="none"/><path d="M0 1 L5.82 0.75 L11.64 0.75 L17.45 0.5 L23.27 0 L29.09 1.5 L34.91 1.5 L40.73 6.5 L46.55 14 L52.36 9.5 L58.18 9.25 L64 9.25" fill="none" stroke="var(--cf-spark)" stroke-width="1.4" stroke-linecap="round" stroke-linejoin="round"/></svg></g></g><g transform="translate(300,46)"><text x="0" y="0" font-size="9" font-weight="600" fill="var(--cf-text-dim)" letter-spacing="0.8">FNS</text><text x="0" y="28" font-size="22" font-weight="700" fill="var(--cf-text)">2.2K</text><g transform="translate(0,40)"><svg width="64" height="14" viewBox="0 0 64 14" preserveAspectRatio="none"><path d="M0 0 L5.82 0.05 L11.64 0.05 L17.45 0.05 L23.27 0.05 L29.09 1.7 L34.91 1.7 L40.73 2.49 L46.55 14 L52.36 13.2 L58.18 13.1 L64 13.1 L64 14 L0 14 Z" fill="var(--cf-spark-bg)" stroke="none"/><path d="M0 0 L5.82 0.05 L11.64 0.05 L17.45 0.05 L23.27 0.05 L29.09 1.7 L34.91 1.7 L40.73 2.49 L46.55 14 L52.36 13.2 L58.18 13.1 L64 13.1" fill="none" stroke="var(--cf-spark)" stroke-width="1.4" stroke-linecap="round" stroke-linejoin="round"/></svg></g></g><g transform="translate(434,46)"><text x="0" y="0" font-size="9" font-weight="600" fill="var(--cf-text-dim)" letter-spacing="0.8">LOC</text><text x="0" y="28" font-size="22" font-weight="700" fill="var(--cf-text)">217.6K</text><g transform="translate(0,40)"><svg width="64" height="14" viewBox="0 0 64 14" preserveAspectRatio="none"><path d="M0 1.58 L5.82 1.53 L11.64 1.5 L17.45 0.28 L23.27 0 L29.09 0.69 L34.91 0.69 L40.73 8.15 L46.55 14 L52.36 13.13 L58.18 13.08 L64 13.08 L64 14 L0 14 Z" fill="var(--cf-spark-bg)" stroke="none"/><path d="M0 1.58 L5.82 1.53 L11.64 1.5 L17.45 0.28 L23.27 0 L29.09 0.69 L34.91 0.69 L40.73 8.15 L46.55 14 L52.36 13.13 L58.18 13.08 L64 13.08" fill="none" stroke="var(--cf-spark)" stroke-width="1.4" stroke-linecap="round" stroke-linejoin="round"/></svg></g></g><g transform="translate(568,46)"><text x="0" y="0" font-size="9" font-weight="600" fill="var(--cf-text-dim)" letter-spacing="0.8">LANGS</text><text x="0" y="28" font-size="22" font-weight="700" fill="var(--cf-text)">21</text><g transform="translate(0,40)"><svg width="64" height="14" viewBox="0 0 64 14" preserveAspectRatio="none"><path d="M0 7 L5.82 7 L11.64 7 L17.45 7 L23.27 7 L29.09 7 L34.91 7 L40.73 7 L46.55 7 L52.36 7 L58.18 7 L64 7 L64 14 L0 14 Z" fill="var(--cf-spark-bg)" stroke="none"/><path d="M0 7 L5.82 7 L11.64 7 L17.45 7 L23.27 7 L29.09 7 L34.91 7 L40.73 7 L46.55 7 L52.36 7 L58.18 7 L64 7" fill="none" stroke="var(--cf-spark)" stroke-width="1.4" stroke-linecap="round" stroke-linejoin="round"/></svg></g></g><a href="https://github.com/braedonsaunders/codeflow" target="_blank"><text x="702" y="130" text-anchor="end" font-size="9" fill="var(--cf-text-faint)">powered by <tspan font-weight="600" fill="var(--cf-accent)">codeflow</tspan></text></a></svg>