<svg xmlns="http://www.w3.org/2000/svg" xmlns:xlink="http://www.w3.org/1999/xlink" contentStyleType="text/css" height="634px" preserveAspectRatio="none" style="width:559px;height:634px;background:#FFFFFF;" version="1.1" viewBox="0 0 559 634" width="559px" zoomAndPan="magnify"><defs/><g><!--cluster root--><g id="cluster_root"><rect fill="#8194A0" height="265" rx="2.5" ry="2.5" style="stroke:#181818;stroke-width:1;" width="239" x="160" y="7"/><text fill="#FFFFFF" font-family="sans-serif" font-size="14" font-weight="bold" lengthAdjust="spacing" textLength="36.709" x="261.1455" y="21.9951">Root</text></g><!--cluster root_ring3--><g id="cluster_root_ring3"><rect fill="#426070" height="87" rx="2.5" ry="2.5" style="stroke:#181818;stroke-width:1;" width="191" x="184" y="50"/><text fill="#FFFFFF" font-family="sans-serif" font-size="14" font-weight="bold" lengthAdjust="spacing" textLength="101.7529" x="228.6235" y="64.9951">Root / Ring 3</text></g><!--cluster root_ring0--><g id="cluster_root_ring0"><rect fill="#426070" height="87" rx="2.5" ry="2.5" style="stroke:#181818;stroke-width:1;" width="117" x="222" y="161"/><text fill="#FFFFFF" font-family="sans-serif" font-size="14" font-weight="bold" lengthAdjust="spacing" textLength="101.7529" x="229.6235" y="175.9951">Root / Ring 0</text></g><!--cluster non_root--><g id="cluster_non_root"><rect fill="#8194A0" height="332" rx="2.5" ry="2.5" style="stroke:#181818;stroke-width:1;" width="546" x="7" y="296"/><text fill="#FFFFFF" font-family="sans-serif" font-size="14" font-weight="bold" lengthAdjust="spacing" textLength="73.8213" x="243.0894" y="310.9951">Non-Root</text></g><!--cluster vm1--><g id="cluster_vm1"><rect fill="#224558" height="265" rx="2.5" ry="2.5" style="stroke:#181818;stroke-width:1;" width="242" x="287" y="339"/><text fill="#FFFFFF" font-family="sans-serif" font-size="14" font-weight="bold" lengthAdjust="spacing" textLength="34.5078" x="390.7461" y="353.9951">VM1</text></g><!--cluster vm1_ring0--><g id="cluster_vm1_ring0"><rect fill="#426070" height="87" rx="2.5" ry="2.5" style="stroke:#181818;stroke-width:1;" width="194" x="311" y="382"/><text fill="#FFFFFF" font-family="sans-serif" font-size="14" font-weight="bold" lengthAdjust="spacing" textLength="99.5518" x="358.2241" y="396.9951">VM1 / Ring 0</text></g><!--cluster vm1_ring3--><g id="cluster_vm1_ring3"><rect fill="#426070" height="87" rx="2.5" ry="2.5" style="stroke:#181818;stroke-width:1;" width="184" x="316" y="493"/><text fill="#FFFFFF" font-family="sans-serif" font-size="14" font-weight="bold" lengthAdjust="spacing" textLength="99.5518" x="358.2241" y="507.9951">VM1 / Ring 3</text></g><!--cluster vm2--><g id="cluster_vm2"><rect fill="#224558" height="265" rx="2.5" ry="2.5" style="stroke:#181818;stroke-width:1;" width="232" x="31" y="339"/><text fill="#FFFFFF" font-family="sans-serif" font-size="14" font-weight="bold" lengthAdjust="spacing" textLength="34.5078" x="129.7461" y="353.9951">VM2</text></g><!--cluster vm2_ring0--><g id="cluster_vm2_ring0"><rect fill="#426070" height="87" rx="2.5" ry="2.5" style="stroke:#181818;stroke-width:1;" width="184" x="55" y="382"/><text fill="#FFFFFF" font-family="sans-serif" font-size="14" font-weight="bold" lengthAdjust="spacing" textLength="99.5518" x="97.2241" y="396.9951">VM2 / Ring 0</text></g><!--cluster vm2_ring3--><g id="cluster_vm2_ring3"><rect fill="#426070" height="87" rx="2.5" ry="2.5" style="stroke:#181818;stroke-width:1;" width="150" x="72" y="493"/><text fill="#FFFFFF" font-family="sans-serif" font-size="14" font-weight="bold" lengthAdjust="spacing" textLength="99.5518" x="97.2241" y="507.9951">VM2 / Ring 3</text></g><!--entity qemu1--><g id="elem_qemu1"><rect fill="#002A41" height="36.2969" rx="2.5" ry="2.5" style="stroke:#181818;stroke-width:0.5;" width="62.1914" x="297" y="85"/><text fill="#FFFFFF" font-family="sans-serif" font-size="14" lengthAdjust="spacing" textLength="42.1914" x="307" y="107.9951">QEMU</text></g><!--entity qemu2--><g id="elem_qemu2"><rect fill="#002A41" height="36.2969" rx="2.5" ry="2.5" style="stroke:#181818;stroke-width:0.5;" width="62.1914" x="200" y="85"/><text fill="#FFFFFF" font-family="sans-serif" font-size="14" lengthAdjust="spacing" textLength="42.1914" x="210" y="107.9951">QEMU</text></g><!--entity kvm--><g id="elem_kvm"><rect fill="#002A41" height="36.2969" rx="2.5" ry="2.5" style="stroke:#181818;stroke-width:0.5;" width="50.8369" x="240.5" y="196"/><text fill="#FFFFFF" font-family="sans-serif" font-size="14" lengthAdjust="spacing" textLength="30.8369" x="250.5" y="218.9951">KVM</text></g><!--entity redhat_linux--><g id="elem_redhat_linux"><rect fill="#002A41" height="36.2969" rx="2.5" ry="2.5" style="stroke:#181818;stroke-width:0.5;" width="162.2969" x="327" y="417"/><text fill="#FFFFFF" font-family="sans-serif" font-size="14" lengthAdjust="spacing" textLength="142.2969" x="337" y="439.9951">RedHat Linux kernel</text></g><!--entity webserver_apache--><g id="elem_webserver_apache"><rect fill="#002A41" height="36.2969" rx="2.5" ry="2.5" style="stroke:#181818;stroke-width:0.5;" width="152.3369" x="332" y="528"/><text fill="#FFFFFF" font-family="sans-serif" font-size="14" lengthAdjust="spacing" textLength="132.3369" x="342" y="550.9951">Webserver Apache</text></g><!--entity windows--><g id="elem_windows"><rect fill="#002A41" height="36.2969" rx="2.5" ry="2.5" style="stroke:#181818;stroke-width:0.5;" width="151.5166" x="71" y="417"/><text fill="#FFFFFF" font-family="sans-serif" font-size="14" lengthAdjust="spacing" textLength="131.5166" x="81" y="439.9951">Microsoft Windows</text></g><!--entity webserver_iis--><g id="elem_webserver_iis"><rect fill="#002A41" height="36.2969" rx="2.5" ry="2.5" style="stroke:#181818;stroke-width:0.5;" width="117.2549" x="88.5" y="528"/><text fill="#FFFFFF" font-family="sans-serif" font-size="14" lengthAdjust="spacing" textLength="97.2549" x="98.5" y="550.9951">Webserver IIS</text></g><!--link qemu1 to kvm--><g id="link_qemu1_kvm"><path d="M328.44,121.03 C321.34,141.39 305.799,170.5537 289.709,191.0137 " fill="none" id="qemu1-to-kvm" style="stroke:#181818;stroke-width:1;"/><polygon fill="#181818" points="286,195.73,294.7077,191.1282,289.0908,191.7997,288.4192,186.1829,286,195.73" style="stroke:#181818;stroke-width:1;"/></g><!--link kvm to qemu1--><g id="link_kvm_qemu1"><path d="M266.21,195.73 C273.65,175.27 289.2601,146.129 305.0701,125.769 " fill="none" id="kvm-to-qemu1" style="stroke:#181818;stroke-width:1;"/><polygon fill="#181818" points="308.75,121.03,300.0708,125.6852,305.6834,124.9792,306.3894,130.5918,308.75,121.03" style="stroke:#181818;stroke-width:1;"/></g><!--link qemu2 to kvm--><g id="link_qemu2_kvm"><path d="M246.59,121.03 C257.61,141.39 267.8916,169.302 270.0116,189.762 " fill="none" id="qemu2-to-kvm" style="stroke:#181818;stroke-width:1;"/><polygon fill="#181818" points="270.63,195.73,273.6811,186.3657,270.1147,190.7566,265.7237,187.1902,270.63,195.73" style="stroke:#181818;stroke-width:1;"/></g><!--link kvm to qemu2--><g id="link_kvm_qemu2"><path d="M250.84,195.73 C240.07,175.27 229.8835,147.3521 227.5835,126.9921 " fill="none" id="kvm-to-qemu2" style="stroke:#181818;stroke-width:1;"/><polygon fill="#181818" points="226.91,121.03,223.9456,130.4221,227.4713,125.9984,231.895,129.5241,226.91,121.03" style="stroke:#181818;stroke-width:1;"/></g><!--link kvm to windows--><g id="link_kvm_windows"><path d="M264.35,232.18 C249.86,273.12 197.4779,371.2013 167.5179,412.0613 " fill="none" id="kvm-to-windows" style="stroke:#181818;stroke-width:1;"/><polygon fill="#181818" points="163.97,416.9,172.5176,412.0073,166.9266,412.8678,166.066,407.2768,163.97,416.9" style="stroke:#181818;stroke-width:1;"/></g><!--link windows to kvm--><g id="link_windows_kvm"><path d="M149.05,416.9 C163.92,376.04 216.3169,277.984 245.8869,237.044 " fill="none" id="windows-to-kvm" style="stroke:#181818;stroke-width:1;"/><polygon fill="#181818" points="249.4,232.18,240.8877,237.1338,246.4724,236.2333,247.373,241.818,249.4,232.18" style="stroke:#181818;stroke-width:1;"/></g><!--link kvm to redhat_linux--><g id="link_kvm_redhat_linux"><path d="M284.83,232.18 C319.13,273.12 383.3498,370.5857 402.0798,411.4457 " fill="none" id="kvm-to-redhat_linux" style="stroke:#181818;stroke-width:1;"/><polygon fill="#181818" points="404.58,416.9,404.4659,407.0518,402.4965,412.3548,397.1935,410.3854,404.58,416.9" style="stroke:#181818;stroke-width:1;"/></g><!--link redhat_linux to kvm--><g id="link_redhat_linux_kvm"><path d="M389.66,416.9 C355.84,376.04 291.6498,278.5513 272.4298,237.6113 " fill="none" id="redhat_linux-to-kvm" style="stroke:#181818;stroke-width:1;"/><polygon fill="#181818" points="269.88,232.18,270.0839,242.0267,272.0048,236.706,277.3255,238.627,269.88,232.18" style="stroke:#181818;stroke-width:1;"/></g><!--link windows to webserver_iis--><g id="link_windows_webserver_iis"><path d="M157.12,453.03 C161.61,473.39 162.8924,501.4065 158.4524,521.8665 " fill="none" id="windows-to-webserver_iis" style="stroke:#181818;stroke-width:1;"/><polygon fill="#181818" points="157.18,527.73,162.9977,519.783,158.2404,522.8437,155.1796,518.0864,157.18,527.73" style="stroke:#181818;stroke-width:1;"/></g><!--link webserver_iis to windows--><g id="link_webserver_iis_windows"><path d="M137.39,527.73 C133.19,507.27 131.9767,479.264 136.2167,458.904 " fill="none" id="webserver_iis-to-windows" style="stroke:#181818;stroke-width:1;"/><polygon fill="#181818" points="137.44,453.03,131.6891,461.0255,136.4206,457.925,139.5211,462.6565,137.44,453.03" style="stroke:#181818;stroke-width:1;"/></g><!--link redhat_linux to webserver_apache--><g id="link_redhat_linux_webserver_apache"><path d="M418.12,453.03 C422.61,473.39 423.8924,501.4065 419.4524,521.8665 " fill="none" id="redhat_linux-to-webserver_apache" style="stroke:#181818;stroke-width:1;"/><polygon fill="#181818" points="418.18,527.73,423.9977,519.783,419.2404,522.8437,416.1796,518.0864,418.18,527.73" style="stroke:#181818;stroke-width:1;"/></g><!--link webserver_apache to redhat_linux--><g id="link_webserver_apache_redhat_linux"><path d="M398.39,527.73 C394.19,507.27 392.9767,479.264 397.2167,458.904 " fill="none" id="webserver_apache-to-redhat_linux" style="stroke:#181818;stroke-width:1;"/><polygon fill="#181818" points="398.44,453.03,392.6891,461.0255,397.4206,457.925,400.5211,462.6565,398.44,453.03" style="stroke:#181818;stroke-width:1;"/></g><!--SRC=[hLFHJi8m57tlLpJwZ8uo5ICXKQFHA2PYX4TIjoiiR2rs7MZC_jskAuDkR6gqJrtlkJlddfxE0XzmB440bnyBGAWNouyG-WYhTU0j4lofjzcweDvyAdZ2_4iUSe7tk-rJbpfd6m0NFWXJzFNQ5AyvawRqgbTUIWkcYGZOj8dE9SVEoV_GBQCc8aBSewFkln2n90oRgB9w3P5TsgBP50n9p5_bYWfe8d8SGjtsNsVg7Pfu806Uf6mQ0juRSYxtC8snK1lSwwcxxFUrbX887-9XTiUT0gtll9FtwBrfj5eVhmRFkkCDegIjmEjv5RWHIohOj5wKOujolX5rDnheXhcAKfKbjGnwuAnLcCGucpGPDHgqDMuPPQCkerta2cFBLk1wrVR8uDzGYUy3bhpZEGW6OJuu-3Cg9w4-hrgSDaZeM18wtqeOmqiCOWa2do-eDmFTlbeVJgW-hD6GbiqYXfmqc4NAPf4VcZK8FC4p6NWSC9-lubngll-PIwJi4lcrIxUtJoMBWY2kzKT5ppoKLgkVnHFfZ6OV-XYPfx6pIZQVPafKZ5jfs8uCiWDKOBURBVseD8v5MVbNEHsecfUoeYy0]--></g></svg>