<svg xmlns="http://www.w3.org/2000/svg" xmlns:xlink="http://www.w3.org/1999/xlink" contentStyleType="text/css" height="388px" preserveAspectRatio="none" style="width:679px;height:388px;background:#FFFFFF;" version="1.1" viewBox="0 0 679 388" width="679px" zoomAndPan="magnify"><defs/><g><!--cluster root--><g id="cluster_root"><rect fill="#FFFFFF" height="375" rx="2.5" ry="2.5" style="stroke:#181818;stroke-width:1;" width="666" x="7" y="7"/><text fill="#000000" font-family="sans-serif" font-size="14" font-weight="bold" lengthAdjust="spacing" textLength="141.1484" x="269.4258" y="21.9951">Layercake project</text></g><!--entity gsheets--><g id="elem_gsheets"><rect fill="#224558" height="36.2969" rx="2.5" ry="2.5" style="stroke:#181818;stroke-width:0.5;" width="121.5889" x="320" y="42"/><text fill="#FFFFFF" font-family="sans-serif" font-size="14" lengthAdjust="spacing" textLength="101.5889" x="330" y="64.9951">Google Sheets</text></g><!--entity excel--><g id="elem_excel"><rect fill="#224558" height="36.2969" rx="2.5" ry="2.5" style="stroke:#181818;stroke-width:0.5;" width="57.3311" x="227.5" y="42"/><text fill="#FFFFFF" font-family="sans-serif" font-size="14" lengthAdjust="spacing" textLength="37.3311" x="237.5" y="64.9951">Excel</text></g><!--entity csvs--><g id="elem_csvs"><rect fill="#224558" height="36.2969" rx="2.5" ry="2.5" style="stroke:#181818;stroke-width:0.5;" width="81.3047" x="278.5" y="138"/><text fill="#FFFFFF" font-family="sans-serif" font-size="14" lengthAdjust="spacing" textLength="61.3047" x="288.5" y="160.9951">CSV files</text></g><!--entity lc_tool--><g id="elem_lc_tool"><rect fill="#002A41" height="36.2969" rx="2.5" ry="2.5" style="stroke:#181818;stroke-width:0.5;" width="122.9902" x="187.5" y="234"/><text fill="#FFFFFF" font-family="sans-serif" font-size="14" lengthAdjust="spacing" textLength="102.9902" x="197.5" y="256.9951">Layercake tool</text></g><!--entity lc_plan--><g id="elem_lc_plan"><rect fill="#002A41" height="36.2969" rx="2.5" ry="2.5" style="stroke:#181818;stroke-width:0.5;" width="126.709" x="116.5" y="138"/><text fill="#FFFFFF" font-family="sans-serif" font-size="14" lengthAdjust="spacing" textLength="106.709" x="126.5" y="160.9951">Layercake plan</text></g><!--entity puml--><g id="elem_puml"><rect fill="#426070" height="36.2969" rx="2.5" ry="2.5" style="stroke:#181818;stroke-width:0.5;" width="85.3994" x="23.5" y="330"/><text fill="#FFFFFF" font-family="sans-serif" font-size="14" lengthAdjust="spacing" textLength="65.3994" x="33.5" y="352.9951">PlantUML</text></g><!--entity mermaid--><g id="elem_mermaid"><rect fill="#426070" height="36.2969" rx="2.5" ry="2.5" style="stroke:#181818;stroke-width:0.5;" width="81.4414" x="143.5" y="330"/><text fill="#FFFFFF" font-family="sans-serif" font-size="14" lengthAdjust="spacing" textLength="61.4414" x="153.5" y="352.9951">Mermaid</text></g><!--entity dot--><g id="elem_dot"><rect fill="#426070" height="36.2969" rx="2.5" ry="2.5" style="stroke:#181818;stroke-width:0.5;" width="110.125" x="260" y="330"/><text fill="#FFFFFF" font-family="sans-serif" font-size="14" lengthAdjust="spacing" textLength="90.125" x="270" y="352.9951">Graphviz/dot</text></g><!--entity gml--><g id="elem_gml"><rect fill="#426070" height="36.2969" rx="2.5" ry="2.5" style="stroke:#181818;stroke-width:0.5;" width="250.7197" x="405.5" y="330"/><text fill="#FFFFFF" font-family="sans-serif" font-size="14" lengthAdjust="spacing" textLength="230.7197" x="415.5" y="352.9951">Graph Modeling Language (GML)</text></g><!--link gsheets to csvs--><g id="link_gsheets_csvs"><path d="M369.63,78.24 C358.44,95.2 344.7636,115.9414 333.6036,132.8614 " fill="none" id="gsheets-to-csvs" style="stroke:#181818;stroke-width:1;"/><polygon fill="#181818" points="330.3,137.87,338.5944,132.5594,333.053,133.6961,331.9163,128.1547,330.3,137.87" style="stroke:#181818;stroke-width:1;"/></g><!--link excel to csvs--><g id="link_excel_csvs"><path d="M267.56,78.24 C278.92,95.2 292.8396,115.9659 304.1796,132.8859 " fill="none" id="excel-to-csvs" style="stroke:#181818;stroke-width:1;"/><polygon fill="#181818" points="307.52,137.87,305.8321,128.1669,304.7363,133.7166,299.1866,132.6208,307.52,137.87" style="stroke:#181818;stroke-width:1;"/></g><!--link csvs to lc_tool--><g id="link_csvs_lc_tool"><path d="M306.16,174.24 C293.53,191.2 277.9436,212.1377 265.3436,229.0577 " fill="none" id="csvs-to-lc_tool" style="stroke:#181818;stroke-width:1;"/><polygon fill="#181818" points="261.76,233.87,270.3436,229.0407,264.7463,229.8598,263.9272,224.2625,261.76,233.87" style="stroke:#181818;stroke-width:1;"/></g><!--link lc_plan to lc_tool--><g id="link_lc_plan_lc_tool"><path d="M192.66,174.24 C205.11,191.2 220.4496,212.1132 232.8696,229.0332 " fill="none" id="lc_plan-to-lc_tool" style="stroke:#181818;stroke-width:1;"/><polygon fill="#181818" points="236.42,233.87,234.3189,224.2479,233.4613,229.8393,227.8699,228.9818,236.42,233.87" style="stroke:#181818;stroke-width:1;"/></g><!--link lc_tool to mermaid--><g id="link_lc_tool_mermaid"><path d="M237.08,270.24 C225.35,287.2 210.9625,308.015 199.2625,324.935 " fill="none" id="lc_tool-to-mermaid" style="stroke:#181818;stroke-width:1;"/><polygon fill="#181818" points="195.85,329.87,204.2588,324.7425,198.6938,325.7575,197.6788,320.1924,195.85,329.87" style="stroke:#181818;stroke-width:1;"/></g><!--link lc_tool to dot--><g id="link_lc_tool_dot"><path d="M261.11,270.24 C273.01,287.2 287.6422,308.0395 299.5222,324.9595 " fill="none" id="lc_tool-to-dot" style="stroke:#181818;stroke-width:1;"/><polygon fill="#181818" points="302.97,329.87,301.072,320.2058,300.0968,325.7779,294.5247,324.8028,302.97,329.87" style="stroke:#181818;stroke-width:1;"/></g><!--link lc_tool to puml--><g id="link_lc_tool_puml"><path d="M215.86,270.02 C182.8,287.01 137.6269,310.2082 104.5369,327.2082 " fill="none" id="lc_tool-to-puml" style="stroke:#181818;stroke-width:1;"/><polygon fill="#181818" points="99.2,329.95,109.0332,329.3952,103.6474,327.6651,105.3774,322.2793,99.2,329.95" style="stroke:#181818;stroke-width:1;"/></g><!--link lc_tool to gml--><g id="link_lc_tool_gml"><path d="M300.07,270.02 C351.02,287.01 423.158,311.0523 474.148,328.0523 " fill="none" id="lc_tool-to-gml" style="stroke:#181818;stroke-width:1;"/><polygon fill="#181818" points="479.84,329.95,472.5672,323.3088,475.0967,328.3686,470.0369,330.8981,479.84,329.95" style="stroke:#181818;stroke-width:1;"/></g><!--SRC=[hLEnJiCm4Dtz5LPPO826g0KaeWnKq2MHa2fOaHLVqr0tZcodeg3-E_OvD4rHWv1wYyztx_cTdvD5mO5g0mgasLH0IAJDHa1Cg8qhMPkgDlGBTouUMBRCbQnBFf52Ades2c-2s-2-1KZ5GJLDZj4sdsHfcjOSmxUsNan9sIkrJ_cFL83HaQgKp43hFhKW2Dde-YGNAye_J0p3qNXyTnAjiXQYJyhrZmXrMtioRMDBec7pVH05cM5bBe0E4hO1bR4bK6likwqFADCKtpEAt1B7EDCUPIgbMsSB0ACHdclCBGFzifGku_4Z0u58SDbHt6JsIkU507zgfjV7ZspdDbBwiqNsvd9BQRwH7b8bMFb3SdaFwTcspKkQ8BogLqx0_ro_e2ce5Iiu8bS-FmwUAbOjriNda4jlEaVF-z0qbHn4KUOqiUMQvK3FfsbouH_XOB8j8Rk7kRoCqKxIF42xHvFTjd6Fx1mvBAAthjZSh5kqmtSBpgbknGxu3G00]--></g></svg>