<?xml version="1.0" encoding="UTF-8" standalone="no"?>
<!DOCTYPE svg PUBLIC "-//W3C//DTD SVG 1.1//EN"
 "http://www.w3.org/Graphics/SVG/1.1/DTD/svg11.dtd">
<!-- Generated by graphviz version 10.0.1 (20240210.2158)
 -->
<!-- Title: G Pages: 1 -->
<svg width="916pt" height="564pt"
 viewBox="0.00 0.00 916.00 564.00" xmlns="http://www.w3.org/2000/svg" xmlns:xlink="http://www.w3.org/1999/xlink">
<g id="graph0" class="graph" transform="scale(1 1) rotate(0) translate(4 560)">
<title>G</title>
<polygon fill="white" stroke="none" points="-4,4 -4,-560 912,-560 912,4 -4,4"/>
<!-- agg_mgmt_a_b -->
<g id="node1" class="node">
<title>agg_mgmt_a_b</title>
<polygon fill="#222222" stroke="none" stroke-dasharray="5,2" points="363,-166 248,-166 248,-130 363,-130 363,-166"/>
<text text-anchor="middle" x="305.5" y="-143.72" font-family="Times,serif" font-size="12.00" fill="#ffffff">3 nodes (aggregated)</text>
</g>
<!-- agg_mgmt_a -->
<g id="node2" class="node">
<title>agg_mgmt_a</title>
<polygon fill="#222222" stroke="none" stroke-dasharray="5,2" points="115,-296 0,-296 0,-260 115,-260 115,-296"/>
<text text-anchor="middle" x="57.5" y="-273.73" font-family="Times,serif" font-size="12.00" fill="#ffffff">7 nodes (aggregated)</text>
</g>
<!-- agg_mgmt_b_a_b -->
<g id="node3" class="node">
<title>agg_mgmt_b_a_b</title>
<polygon fill="#222222" stroke="none" stroke-dasharray="5,2" points="636,-36 521,-36 521,0 636,0 636,-36"/>
<text text-anchor="middle" x="578.5" y="-13.72" font-family="Times,serif" font-size="12.00" fill="#ffffff">6 nodes (aggregated)</text>
</g>
<!-- agg_mgmt_b_a -->
<g id="node4" class="node">
<title>agg_mgmt_b_a</title>
<polygon fill="#222222" stroke="none" stroke-dasharray="5,2" points="500,-166 385,-166 385,-130 500,-130 500,-166"/>
<text text-anchor="middle" x="442.5" y="-143.72" font-family="Times,serif" font-size="12.00" fill="#ffffff">7 nodes (aggregated)</text>
</g>
<!-- agg_mgmt_b_b_a -->
<g id="node5" class="node">
<title>agg_mgmt_b_b_a</title>
<polygon fill="#222222" stroke="none" stroke-dasharray="5,2" points="908,-36 793,-36 793,0 908,0 908,-36"/>
<text text-anchor="middle" x="850.5" y="-13.72" font-family="Times,serif" font-size="12.00" fill="#ffffff">4 nodes (aggregated)</text>
</g>
<!-- agg_mgmt_b_b -->
<g id="node6" class="node">
<title>agg_mgmt_b_b</title>
<polygon fill="#222222" stroke="none" stroke-dasharray="5,2" points="772,-166 657,-166 657,-130 772,-130 772,-166"/>
<text text-anchor="middle" x="714.5" y="-143.72" font-family="Times,serif" font-size="12.00" fill="#ffffff">6 nodes (aggregated)</text>
</g>
<!-- agg_mgmt_b -->
<g id="node7" class="node">
<title>agg_mgmt_b</title>
<polygon fill="#222222" stroke="none" stroke-dasharray="5,2" points="503,-296 388,-296 388,-260 503,-260 503,-296"/>
<text text-anchor="middle" x="445.5" y="-273.73" font-family="Times,serif" font-size="12.00" fill="#ffffff">6 nodes (aggregated)</text>
</g>
<!-- drone_02 -->
<g id="node8" class="node">
<title>drone_02</title>
<polygon fill="#002a41" stroke="none" stroke-dasharray="5,2" points="214.5,-166 160.5,-166 160.5,-130 214.5,-130 214.5,-166"/>
<text text-anchor="middle" x="187.5" y="-143.72" font-family="Times,serif" font-size="12.00" fill="#ffffff">Drone</text>
</g>
<!-- root -->
<g id="node9" class="node">
<title>root</title>
<polygon fill="#426070" stroke="none" stroke-dasharray="5,2" points="340.5,-556 286.5,-556 286.5,-520 340.5,-520 340.5,-556"/>
<text text-anchor="middle" x="313.5" y="-533.73" font-family="Times,serif" font-size="12.00" fill="#ffffff">Root</text>
</g>
<!-- mgmt_a -->
<g id="node10" class="node">
<title>mgmt_a</title>
<polygon fill="#8194a0" stroke="none" stroke-dasharray="5,2" points="292.88,-426 204.12,-426 204.12,-390 292.88,-390 292.88,-426"/>
<text text-anchor="middle" x="248.5" y="-403.73" font-family="Times,serif" font-size="12.00" fill="#ffffff">Management A</text>
</g>
<!-- root&#45;&gt;mgmt_a -->
<g id="edge1" class="edge">
<title>root&#45;&gt;mgmt_a</title>
<path fill="none" stroke="#2b303a" d="M304.87,-520C293.93,-498.46 274.95,-461.09 262.07,-435.72"/>
<polygon fill="#2b303a" stroke="#2b303a" points="265.29,-434.34 257.65,-427.01 259.05,-437.51 265.29,-434.34"/>
</g>
<!-- mgmt_b -->
<g id="node13" class="node">
<title>mgmt_b</title>
<polygon fill="#8194a0" stroke="none" stroke-dasharray="5,2" points="554.88,-426 466.12,-426 466.12,-390 554.88,-390 554.88,-426"/>
<text text-anchor="middle" x="510.5" y="-403.73" font-family="Times,serif" font-size="12.00" fill="#ffffff">Management B</text>
</g>
<!-- root&#45;&gt;mgmt_b -->
<g id="edge4" class="edge">
<title>root&#45;&gt;mgmt_b</title>
<path fill="none" stroke="#2b303a" d="M339.66,-520C374.49,-497.37 436.22,-457.26 475.17,-431.96"/>
<polygon fill="#2b303a" stroke="#2b303a" points="476.8,-435.07 483.28,-426.69 472.98,-429.2 476.8,-435.07"/>
</g>
<!-- mgmt_a&#45;&gt;agg_mgmt_a -->
<g id="edge11" class="edge">
<title>mgmt_a&#45;&gt;agg_mgmt_a</title>
<path fill="none" stroke="#2b303a" d="M223.14,-390C189.37,-367.37 129.52,-327.26 91.76,-301.96"/>
<polygon fill="#2b303a" stroke="#2b303a" points="94.18,-299.37 83.92,-296.71 90.28,-305.18 94.18,-299.37"/>
</g>
<!-- mgmt_a_a -->
<g id="node11" class="node">
<title>mgmt_a_a</title>
<polygon fill="#8194a0" stroke="none" stroke-dasharray="5,2" points="237.88,-296 137.12,-296 137.12,-260 237.88,-260 237.88,-296"/>
<text text-anchor="middle" x="187.5" y="-273.73" font-family="Times,serif" font-size="12.00" fill="#ffffff">Management A/A</text>
</g>
<!-- mgmt_a&#45;&gt;mgmt_a_a -->
<g id="edge2" class="edge">
<title>mgmt_a&#45;&gt;mgmt_a_a</title>
<path fill="none" stroke="#2b303a" d="M240.4,-390C230.13,-368.46 212.32,-331.09 200.23,-305.72"/>
<polygon fill="#2b303a" stroke="#2b303a" points="203.55,-304.55 196.09,-297.03 197.23,-307.56 203.55,-304.55"/>
</g>
<!-- mgmt_a_b -->
<g id="node12" class="node">
<title>mgmt_a_b</title>
<polygon fill="#8194a0" stroke="none" stroke-dasharray="5,2" points="359.5,-296 259.5,-296 259.5,-260 359.5,-260 359.5,-296"/>
<text text-anchor="middle" x="309.5" y="-273.73" font-family="Times,serif" font-size="12.00" fill="#ffffff">Management A/B</text>
</g>
<!-- mgmt_a&#45;&gt;mgmt_a_b -->
<g id="edge3" class="edge">
<title>mgmt_a&#45;&gt;mgmt_a_b</title>
<path fill="none" stroke="#2b303a" d="M256.6,-390C266.87,-368.46 284.68,-331.09 296.77,-305.72"/>
<polygon fill="#2b303a" stroke="#2b303a" points="299.77,-307.56 300.91,-297.03 293.45,-304.55 299.77,-307.56"/>
</g>
<!-- mgmt_a_a&#45;&gt;drone_02 -->
<g id="edge9" class="edge">
<title>mgmt_a_a&#45;&gt;drone_02</title>
<path fill="none" stroke="#2b303a" d="M187.5,-260C187.5,-238.85 187.5,-202.42 187.5,-177.09"/>
<polygon fill="#2b303a" stroke="#2b303a" points="191,-177.17 187.5,-167.17 184,-177.17 191,-177.17"/>
</g>
<!-- mgmt_a_b&#45;&gt;agg_mgmt_a_b -->
<g id="edge10" class="edge">
<title>mgmt_a_b&#45;&gt;agg_mgmt_a_b</title>
<path fill="none" stroke="#2b303a" d="M308.97,-260C308.31,-238.85 307.17,-202.42 306.38,-177.09"/>
<polygon fill="#2b303a" stroke="#2b303a" points="309.88,-177.06 306.07,-167.17 302.88,-177.28 309.88,-177.06"/>
</g>
<!-- mgmt_b&#45;&gt;agg_mgmt_b -->
<g id="edge16" class="edge">
<title>mgmt_b&#45;&gt;agg_mgmt_b</title>
<path fill="none" stroke="#2b303a" d="M501.87,-390C490.93,-368.46 471.95,-331.09 459.07,-305.72"/>
<polygon fill="#2b303a" stroke="#2b303a" points="462.29,-304.34 454.65,-297.01 456.05,-307.51 462.29,-304.34"/>
</g>
<!-- mgmt_b_a -->
<g id="node14" class="node">
<title>mgmt_b_a</title>
<polygon fill="#8194a0" stroke="none" stroke-dasharray="5,2" points="625.88,-296 525.12,-296 525.12,-260 625.88,-260 625.88,-296"/>
<text text-anchor="middle" x="575.5" y="-273.73" font-family="Times,serif" font-size="12.00" fill="#ffffff">Management B/A</text>
</g>
<!-- mgmt_b&#45;&gt;mgmt_b_a -->
<g id="edge5" class="edge">
<title>mgmt_b&#45;&gt;mgmt_b_a</title>
<path fill="none" stroke="#2b303a" d="M519.13,-390C530.07,-368.46 549.05,-331.09 561.93,-305.72"/>
<polygon fill="#2b303a" stroke="#2b303a" points="564.95,-307.51 566.35,-297.01 558.71,-304.34 564.95,-307.51"/>
</g>
<!-- mgmt_b_b -->
<g id="node16" class="node">
<title>mgmt_b_b</title>
<polygon fill="#8194a0" stroke="none" stroke-dasharray="5,2" points="764.5,-296 664.5,-296 664.5,-260 764.5,-260 764.5,-296"/>
<text text-anchor="middle" x="714.5" y="-273.73" font-family="Times,serif" font-size="12.00" fill="#ffffff">Management B/B</text>
</g>
<!-- mgmt_b&#45;&gt;mgmt_b_b -->
<g id="edge7" class="edge">
<title>mgmt_b&#45;&gt;mgmt_b_b</title>
<path fill="none" stroke="#2b303a" d="M537.59,-390C573.66,-367.37 637.58,-327.26 677.91,-301.96"/>
<polygon fill="#2b303a" stroke="#2b303a" points="679.73,-304.95 686.34,-296.67 676.01,-299.02 679.73,-304.95"/>
</g>
<!-- mgmt_b_a&#45;&gt;agg_mgmt_b_a -->
<g id="edge13" class="edge">
<title>mgmt_b_a&#45;&gt;agg_mgmt_b_a</title>
<path fill="none" stroke="#2b303a" d="M557.84,-260C534.76,-237.79 494.18,-198.74 467.83,-173.38"/>
<polygon fill="#2b303a" stroke="#2b303a" points="470.53,-171.12 460.9,-166.71 465.68,-176.17 470.53,-171.12"/>
</g>
<!-- mgmt_b_a_b -->
<g id="node15" class="node">
<title>mgmt_b_a_b</title>
<polygon fill="#8194a0" stroke="none" stroke-dasharray="5,2" points="634.5,-166 522.5,-166 522.5,-130 634.5,-130 634.5,-166"/>
<text text-anchor="middle" x="578.5" y="-143.72" font-family="Times,serif" font-size="12.00" fill="#ffffff">Management B/A/B</text>
</g>
<!-- mgmt_b_a&#45;&gt;mgmt_b_a_b -->
<g id="edge6" class="edge">
<title>mgmt_b_a&#45;&gt;mgmt_b_a_b</title>
<path fill="none" stroke="#2b303a" d="M575.9,-260C576.39,-238.85 577.25,-202.42 577.84,-177.09"/>
<polygon fill="#2b303a" stroke="#2b303a" points="581.34,-177.25 578.07,-167.17 574.34,-177.09 581.34,-177.25"/>
</g>
<!-- mgmt_b_a_b&#45;&gt;agg_mgmt_b_a_b -->
<g id="edge12" class="edge">
<title>mgmt_b_a_b&#45;&gt;agg_mgmt_b_a_b</title>
<path fill="none" stroke="#2b303a" d="M578.5,-130C578.5,-108.85 578.5,-72.42 578.5,-47.09"/>
<polygon fill="#2b303a" stroke="#2b303a" points="582,-47.17 578.5,-37.17 575,-47.17 582,-47.17"/>
</g>
<!-- mgmt_b_b&#45;&gt;agg_mgmt_b_b -->
<g id="edge15" class="edge">
<title>mgmt_b_b&#45;&gt;agg_mgmt_b_b</title>
<path fill="none" stroke="#2b303a" d="M714.5,-260C714.5,-238.85 714.5,-202.42 714.5,-177.09"/>
<polygon fill="#2b303a" stroke="#2b303a" points="718,-177.17 714.5,-167.17 711,-177.17 718,-177.17"/>
</g>
<!-- mgmt_b_b_a -->
<g id="node17" class="node">
<title>mgmt_b_b_a</title>
<polygon fill="#8194a0" stroke="none" stroke-dasharray="5,2" points="906.5,-166 794.5,-166 794.5,-130 906.5,-130 906.5,-166"/>
<text text-anchor="middle" x="850.5" y="-143.72" font-family="Times,serif" font-size="12.00" fill="#ffffff">Management B/B/A</text>
</g>
<!-- mgmt_b_b&#45;&gt;mgmt_b_b_a -->
<g id="edge8" class="edge">
<title>mgmt_b_b&#45;&gt;mgmt_b_b_a</title>
<path fill="none" stroke="#2b303a" d="M732.56,-260C756.16,-237.79 797.65,-198.74 824.6,-173.38"/>
<polygon fill="#2b303a" stroke="#2b303a" points="826.81,-176.1 831.7,-166.7 822.01,-171 826.81,-176.1"/>
</g>
<!-- mgmt_b_b_a&#45;&gt;agg_mgmt_b_b_a -->
<g id="edge14" class="edge">
<title>mgmt_b_b_a&#45;&gt;agg_mgmt_b_b_a</title>
<path fill="none" stroke="#2b303a" d="M850.5,-130C850.5,-108.85 850.5,-72.42 850.5,-47.09"/>
<polygon fill="#2b303a" stroke="#2b303a" points="854,-47.17 850.5,-37.17 847,-47.17 854,-47.17"/>
</g>
</g>
</svg>
