<?xml version="1.0" encoding="UTF-8" standalone="no"?>
<!DOCTYPE svg PUBLIC "-//W3C//DTD SVG 1.1//EN"
 "http://www.w3.org/Graphics/SVG/1.1/DTD/svg11.dtd">
<!-- Generated by graphviz version 10.0.1 (20240210.2158)
 -->
<!-- Title: G Pages: 1 -->
<svg width="842pt" height="564pt"
 viewBox="0.00 0.00 841.88 564.00" xmlns="http://www.w3.org/2000/svg" xmlns:xlink="http://www.w3.org/1999/xlink">
<g id="graph0" class="graph" transform="scale(1 1) rotate(0) translate(4 560)">
<title>G</title>
<polygon fill="white" stroke="none" points="-4,4 -4,-560 837.88,-560 837.88,4 -4,4"/>
<!-- mgmt_a -->
<g id="node1" class="node">
<title>mgmt_a</title>
<polygon fill="#8194a0" stroke="none" stroke-dasharray="5,2" points="296.75,-426 208,-426 208,-390 296.75,-390 296.75,-426"/>
<text text-anchor="middle" x="252.38" y="-403.73" font-family="Times,serif" font-size="12.00" fill="#ffffff">Management A</text>
</g>
<!-- mgmt_a_a -->
<g id="node2" class="node">
<title>mgmt_a_a</title>
<polygon fill="#8194a0" stroke="none" stroke-dasharray="5,2" points="100.75,-296 0,-296 0,-260 100.75,-260 100.75,-296"/>
<text text-anchor="middle" x="50.38" y="-273.73" font-family="Times,serif" font-size="12.00" fill="#ffffff">Management A/A</text>
</g>
<!-- mgmt_a&#45;&gt;mgmt_a_a -->
<g id="edge2" class="edge">
<title>mgmt_a&#45;&gt;mgmt_a_a</title>
<path fill="none" stroke="#2b303a" d="M225.55,-390C189.84,-367.37 126.54,-327.26 86.61,-301.96"/>
<polygon fill="#2b303a" stroke="#2b303a" points="88.59,-299.07 78.27,-296.67 84.84,-304.98 88.59,-299.07"/>
</g>
<!-- mgmt_a_b -->
<g id="node3" class="node">
<title>mgmt_a_b</title>
<polygon fill="#8194a0" stroke="none" stroke-dasharray="5,2" points="237.38,-296 137.38,-296 137.38,-260 237.38,-260 237.38,-296"/>
<text text-anchor="middle" x="187.38" y="-273.73" font-family="Times,serif" font-size="12.00" fill="#ffffff">Management A/B</text>
</g>
<!-- mgmt_a&#45;&gt;mgmt_a_b -->
<g id="edge3" class="edge">
<title>mgmt_a&#45;&gt;mgmt_a_b</title>
<path fill="none" stroke="#2b303a" d="M243.74,-390C232.8,-368.46 213.83,-331.09 200.94,-305.72"/>
<polygon fill="#2b303a" stroke="#2b303a" points="204.17,-304.34 196.52,-297.01 197.93,-307.51 204.17,-304.34"/>
</g>
<!-- agg_mgmt_a -->
<g id="node18" class="node">
<title>agg_mgmt_a</title>
<polygon fill="#222222" stroke="none" stroke-dasharray="5,2" points="374.88,-296 259.88,-296 259.88,-260 374.88,-260 374.88,-296"/>
<text text-anchor="middle" x="317.38" y="-273.73" font-family="Times,serif" font-size="12.00" fill="#ffffff">7 nodes (aggregated)</text>
</g>
<!-- mgmt_a&#45;&gt;agg_mgmt_a -->
<g id="edge17" class="edge">
<title>mgmt_a&#45;&gt;agg_mgmt_a</title>
<path fill="none" stroke="#2b303a" d="M261.01,-390C271.95,-368.46 290.92,-331.09 303.81,-305.72"/>
<polygon fill="#2b303a" stroke="#2b303a" points="306.82,-307.51 308.23,-297.01 300.58,-304.34 306.82,-307.51"/>
</g>
<!-- drone_02 -->
<g id="node10" class="node">
<title>drone_02</title>
<polygon fill="#002a41" stroke="none" stroke-dasharray="5,2" points="62.38,-166 8.38,-166 8.38,-130 62.38,-130 62.38,-166"/>
<text text-anchor="middle" x="35.38" y="-143.72" font-family="Times,serif" font-size="12.00" fill="#ffffff">Drone</text>
</g>
<!-- mgmt_a_a&#45;&gt;drone_02 -->
<g id="edge9" class="edge">
<title>mgmt_a_a&#45;&gt;drone_02</title>
<path fill="none" stroke="#2b303a" d="M48.38,-260C45.9,-238.85 41.64,-202.42 38.67,-177.09"/>
<polygon fill="#2b303a" stroke="#2b303a" points="42.14,-176.69 37.5,-167.16 35.19,-177.5 42.14,-176.69"/>
</g>
<!-- drone_03 -->
<g id="node11" class="node">
<title>drone_03</title>
<polygon fill="#002a41" stroke="none" stroke-dasharray="5,2" points="138.38,-166 84.38,-166 84.38,-130 138.38,-130 138.38,-166"/>
<text text-anchor="middle" x="111.38" y="-143.72" font-family="Times,serif" font-size="12.00" fill="#ffffff">Drone</text>
</g>
<!-- mgmt_a_b&#45;&gt;drone_03 -->
<g id="edge10" class="edge">
<title>mgmt_a_b&#45;&gt;drone_03</title>
<path fill="none" stroke="#2b303a" d="M177.28,-260C164.44,-238.37 142.1,-200.76 127.04,-175.38"/>
<polygon fill="#2b303a" stroke="#2b303a" points="130.16,-173.77 122.04,-166.96 124.14,-177.35 130.16,-173.77"/>
</g>
<!-- drone_04 -->
<g id="node12" class="node">
<title>drone_04</title>
<polygon fill="#002a41" stroke="none" stroke-dasharray="5,2" points="214.38,-166 160.38,-166 160.38,-130 214.38,-130 214.38,-166"/>
<text text-anchor="middle" x="187.38" y="-143.72" font-family="Times,serif" font-size="12.00" fill="#ffffff">Drone</text>
</g>
<!-- mgmt_a_b&#45;&gt;drone_04 -->
<g id="edge11" class="edge">
<title>mgmt_a_b&#45;&gt;drone_04</title>
<path fill="none" stroke="#2b303a" d="M187.38,-260C187.38,-238.85 187.38,-202.42 187.38,-177.09"/>
<polygon fill="#2b303a" stroke="#2b303a" points="190.88,-177.17 187.38,-167.17 183.88,-177.17 190.88,-177.17"/>
</g>
<!-- drone_05 -->
<g id="node13" class="node">
<title>drone_05</title>
<polygon fill="#002a41" stroke="none" stroke-dasharray="5,2" points="290.38,-166 236.38,-166 236.38,-130 290.38,-130 290.38,-166"/>
<text text-anchor="middle" x="263.38" y="-143.72" font-family="Times,serif" font-size="12.00" fill="#ffffff">Drone</text>
</g>
<!-- mgmt_a_b&#45;&gt;drone_05 -->
<g id="edge12" class="edge">
<title>mgmt_a_b&#45;&gt;drone_05</title>
<path fill="none" stroke="#2b303a" d="M197.47,-260C210.31,-238.37 232.65,-200.76 247.71,-175.38"/>
<polygon fill="#2b303a" stroke="#2b303a" points="250.61,-177.35 252.71,-166.96 244.59,-173.77 250.61,-177.35"/>
</g>
<!-- mgmt_b -->
<g id="node4" class="node">
<title>mgmt_b</title>
<polygon fill="#8194a0" stroke="none" stroke-dasharray="5,2" points="612.75,-426 524,-426 524,-390 612.75,-390 612.75,-426"/>
<text text-anchor="middle" x="568.38" y="-403.73" font-family="Times,serif" font-size="12.00" fill="#ffffff">Management B</text>
</g>
<!-- mgmt_b_a -->
<g id="node5" class="node">
<title>mgmt_b_a</title>
<polygon fill="#8194a0" stroke="none" stroke-dasharray="5,2" points="554.75,-296 454,-296 454,-260 554.75,-260 554.75,-296"/>
<text text-anchor="middle" x="504.38" y="-273.73" font-family="Times,serif" font-size="12.00" fill="#ffffff">Management B/A</text>
</g>
<!-- mgmt_b&#45;&gt;mgmt_b_a -->
<g id="edge5" class="edge">
<title>mgmt_b&#45;&gt;mgmt_b_a</title>
<path fill="none" stroke="#2b303a" d="M559.88,-390C549.11,-368.46 530.42,-331.09 517.73,-305.72"/>
<polygon fill="#2b303a" stroke="#2b303a" points="520.99,-304.39 513.38,-297.01 514.72,-307.52 520.99,-304.39"/>
</g>
<!-- mgmt_b_b -->
<g id="node7" class="node">
<title>mgmt_b_b</title>
<polygon fill="#8194a0" stroke="none" stroke-dasharray="5,2" points="683.38,-296 583.38,-296 583.38,-260 683.38,-260 683.38,-296"/>
<text text-anchor="middle" x="633.38" y="-273.73" font-family="Times,serif" font-size="12.00" fill="#ffffff">Management B/B</text>
</g>
<!-- mgmt_b&#45;&gt;mgmt_b_b -->
<g id="edge7" class="edge">
<title>mgmt_b&#45;&gt;mgmt_b_b</title>
<path fill="none" stroke="#2b303a" d="M577.01,-390C587.95,-368.46 606.92,-331.09 619.81,-305.72"/>
<polygon fill="#2b303a" stroke="#2b303a" points="622.82,-307.51 624.23,-297.01 616.58,-304.34 622.82,-307.51"/>
</g>
<!-- agg_mgmt_b -->
<g id="node22" class="node">
<title>agg_mgmt_b</title>
<polygon fill="#222222" stroke="none" stroke-dasharray="5,2" points="820.88,-296 705.88,-296 705.88,-260 820.88,-260 820.88,-296"/>
<text text-anchor="middle" x="763.38" y="-273.73" font-family="Times,serif" font-size="12.00" fill="#ffffff">6 nodes (aggregated)</text>
</g>
<!-- mgmt_b&#45;&gt;agg_mgmt_b -->
<g id="edge21" class="edge">
<title>mgmt_b&#45;&gt;agg_mgmt_b</title>
<path fill="none" stroke="#2b303a" d="M594.27,-390C628.75,-367.37 689.85,-327.26 728.4,-301.96"/>
<polygon fill="#2b303a" stroke="#2b303a" points="729.98,-305.11 736.42,-296.69 726.14,-299.26 729.98,-305.11"/>
</g>
<!-- mgmt_b_a_b -->
<g id="node6" class="node">
<title>mgmt_b_a_b</title>
<polygon fill="#8194a0" stroke="none" stroke-dasharray="5,2" points="424.38,-166 312.38,-166 312.38,-130 424.38,-130 424.38,-166"/>
<text text-anchor="middle" x="368.38" y="-143.72" font-family="Times,serif" font-size="12.00" fill="#ffffff">Management B/A/B</text>
</g>
<!-- mgmt_b_a&#45;&gt;mgmt_b_a_b -->
<g id="edge6" class="edge">
<title>mgmt_b_a&#45;&gt;mgmt_b_a_b</title>
<path fill="none" stroke="#2b303a" d="M486.32,-260C462.71,-237.79 421.22,-198.74 394.27,-173.38"/>
<polygon fill="#2b303a" stroke="#2b303a" points="396.86,-171 387.18,-166.7 392.06,-176.1 396.86,-171"/>
</g>
<!-- agg_mgmt_b_a -->
<g id="node20" class="node">
<title>agg_mgmt_b_a</title>
<polygon fill="#222222" stroke="none" stroke-dasharray="5,2" points="561.88,-166 446.88,-166 446.88,-130 561.88,-130 561.88,-166"/>
<text text-anchor="middle" x="504.38" y="-143.72" font-family="Times,serif" font-size="12.00" fill="#ffffff">7 nodes (aggregated)</text>
</g>
<!-- mgmt_b_a&#45;&gt;agg_mgmt_b_a -->
<g id="edge19" class="edge">
<title>mgmt_b_a&#45;&gt;agg_mgmt_b_a</title>
<path fill="none" stroke="#2b303a" d="M504.38,-260C504.38,-238.85 504.38,-202.42 504.38,-177.09"/>
<polygon fill="#2b303a" stroke="#2b303a" points="507.88,-177.17 504.38,-167.17 500.88,-177.17 507.88,-177.17"/>
</g>
<!-- agg_mgmt_b_a_b -->
<g id="node19" class="node">
<title>agg_mgmt_b_a_b</title>
<polygon fill="#222222" stroke="none" stroke-dasharray="5,2" points="425.88,-36 310.88,-36 310.88,0 425.88,0 425.88,-36"/>
<text text-anchor="middle" x="368.38" y="-13.72" font-family="Times,serif" font-size="12.00" fill="#ffffff">6 nodes (aggregated)</text>
</g>
<!-- mgmt_b_a_b&#45;&gt;agg_mgmt_b_a_b -->
<g id="edge18" class="edge">
<title>mgmt_b_a_b&#45;&gt;agg_mgmt_b_a_b</title>
<path fill="none" stroke="#2b303a" d="M368.38,-130C368.38,-108.85 368.38,-72.42 368.38,-47.09"/>
<polygon fill="#2b303a" stroke="#2b303a" points="371.88,-47.17 368.38,-37.17 364.88,-47.17 371.88,-47.17"/>
</g>
<!-- mgmt_b_b_a -->
<g id="node8" class="node">
<title>mgmt_b_b_a</title>
<polygon fill="#8194a0" stroke="none" stroke-dasharray="5,2" points="696.38,-166 584.38,-166 584.38,-130 696.38,-130 696.38,-166"/>
<text text-anchor="middle" x="640.38" y="-143.72" font-family="Times,serif" font-size="12.00" fill="#ffffff">Management B/B/A</text>
</g>
<!-- mgmt_b_b&#45;&gt;mgmt_b_b_a -->
<g id="edge8" class="edge">
<title>mgmt_b_b&#45;&gt;mgmt_b_b_a</title>
<path fill="none" stroke="#2b303a" d="M634.3,-260C635.46,-238.85 637.45,-202.42 638.84,-177.09"/>
<polygon fill="#2b303a" stroke="#2b303a" points="642.33,-177.35 639.38,-167.17 635.34,-176.97 642.33,-177.35"/>
</g>
<!-- agg_mgmt_b_b -->
<g id="node21" class="node">
<title>agg_mgmt_b_b</title>
<polygon fill="#222222" stroke="none" stroke-dasharray="5,2" points="833.88,-166 718.88,-166 718.88,-130 833.88,-130 833.88,-166"/>
<text text-anchor="middle" x="776.38" y="-143.72" font-family="Times,serif" font-size="12.00" fill="#ffffff">6 nodes (aggregated)</text>
</g>
<!-- mgmt_b_b&#45;&gt;agg_mgmt_b_b -->
<g id="edge20" class="edge">
<title>mgmt_b_b&#45;&gt;agg_mgmt_b_b</title>
<path fill="none" stroke="#2b303a" d="M652.36,-260C677.29,-237.69 721.19,-198.4 749.51,-173.05"/>
<polygon fill="#2b303a" stroke="#2b303a" points="751.52,-175.95 756.63,-166.67 746.85,-170.73 751.52,-175.95"/>
</g>
<!-- drone_37 -->
<g id="node14" class="node">
<title>drone_37</title>
<polygon fill="#002a41" stroke="none" stroke-dasharray="5,2" points="553.38,-36 499.38,-36 499.38,0 553.38,0 553.38,-36"/>
<text text-anchor="middle" x="526.38" y="-13.72" font-family="Times,serif" font-size="12.00" fill="#ffffff">Drone</text>
</g>
<!-- mgmt_b_b_a&#45;&gt;drone_37 -->
<g id="edge13" class="edge">
<title>mgmt_b_b_a&#45;&gt;drone_37</title>
<path fill="none" stroke="#2b303a" d="M625.24,-130C605.62,-107.98 571.27,-69.41 548.67,-44.04"/>
<polygon fill="#2b303a" stroke="#2b303a" points="551.48,-41.93 542.22,-36.79 546.26,-46.59 551.48,-41.93"/>
</g>
<!-- drone_38 -->
<g id="node15" class="node">
<title>drone_38</title>
<polygon fill="#002a41" stroke="none" stroke-dasharray="5,2" points="629.38,-36 575.38,-36 575.38,0 629.38,0 629.38,-36"/>
<text text-anchor="middle" x="602.38" y="-13.72" font-family="Times,serif" font-size="12.00" fill="#ffffff">Drone</text>
</g>
<!-- mgmt_b_b_a&#45;&gt;drone_38 -->
<g id="edge14" class="edge">
<title>mgmt_b_b_a&#45;&gt;drone_38</title>
<path fill="none" stroke="#2b303a" d="M635.33,-130C628.99,-108.65 618.04,-71.76 610.51,-46.4"/>
<polygon fill="#2b303a" stroke="#2b303a" points="613.95,-45.7 607.75,-37.11 607.24,-47.69 613.95,-45.7"/>
</g>
<!-- drone_39 -->
<g id="node16" class="node">
<title>drone_39</title>
<polygon fill="#002a41" stroke="none" stroke-dasharray="5,2" points="705.38,-36 651.38,-36 651.38,0 705.38,0 705.38,-36"/>
<text text-anchor="middle" x="678.38" y="-13.72" font-family="Times,serif" font-size="12.00" fill="#ffffff">Drone</text>
</g>
<!-- mgmt_b_b_a&#45;&gt;drone_39 -->
<g id="edge15" class="edge">
<title>mgmt_b_b_a&#45;&gt;drone_39</title>
<path fill="none" stroke="#2b303a" d="M645.42,-130C651.76,-108.65 662.71,-71.76 670.24,-46.4"/>
<polygon fill="#2b303a" stroke="#2b303a" points="673.51,-47.69 673,-37.11 666.8,-45.7 673.51,-47.69"/>
</g>
<!-- drone_40 -->
<g id="node17" class="node">
<title>drone_40</title>
<polygon fill="#002a41" stroke="none" stroke-dasharray="5,2" points="781.38,-36 727.38,-36 727.38,0 781.38,0 781.38,-36"/>
<text text-anchor="middle" x="754.38" y="-13.72" font-family="Times,serif" font-size="12.00" fill="#ffffff">Drone</text>
</g>
<!-- mgmt_b_b_a&#45;&gt;drone_40 -->
<g id="edge16" class="edge">
<title>mgmt_b_b_a&#45;&gt;drone_40</title>
<path fill="none" stroke="#2b303a" d="M655.51,-130C675.13,-107.98 709.48,-69.41 732.08,-44.04"/>
<polygon fill="#2b303a" stroke="#2b303a" points="734.49,-46.59 738.53,-36.79 729.27,-41.93 734.49,-46.59"/>
</g>
<!-- root -->
<g id="node9" class="node">
<title>root</title>
<polygon fill="#426070" stroke="none" stroke-dasharray="5,2" points="372.38,-556 318.38,-556 318.38,-520 372.38,-520 372.38,-556"/>
<text text-anchor="middle" x="345.38" y="-533.73" font-family="Times,serif" font-size="12.00" fill="#ffffff">Root</text>
</g>
<!-- root&#45;&gt;mgmt_a -->
<g id="edge1" class="edge">
<title>root&#45;&gt;mgmt_a</title>
<path fill="none" stroke="#2b303a" d="M333.03,-520C317.17,-498.17 289.49,-460.09 271.05,-434.71"/>
<polygon fill="#2b303a" stroke="#2b303a" points="274.08,-432.92 265.37,-426.89 268.42,-437.03 274.08,-432.92"/>
</g>
<!-- root&#45;&gt;mgmt_b -->
<g id="edge4" class="edge">
<title>root&#45;&gt;mgmt_b</title>
<path fill="none" stroke="#2b303a" d="M372.27,-521.56C411.37,-499.12 484.12,-457.36 529.18,-431.5"/>
<polygon fill="#2b303a" stroke="#2b303a" points="530.66,-434.68 537.59,-426.67 527.17,-428.61 530.66,-434.68"/>
</g>
</g>
</svg>
