<?xml version="1.0" encoding="UTF-8" standalone="no"?>
<!DOCTYPE svg PUBLIC "-//W3C//DTD SVG 1.1//EN"
 "http://www.w3.org/Graphics/SVG/1.1/DTD/svg11.dtd">
<!-- Generated by graphviz version 10.0.1 (20240210.2158)
 -->
<!-- Title: G Pages: 1 -->
<svg width="1823pt" height="564pt"
 viewBox="0.00 0.00 1823.38 564.00" xmlns="http://www.w3.org/2000/svg" xmlns:xlink="http://www.w3.org/1999/xlink">
<g id="graph0" class="graph" transform="scale(1 1) rotate(0) translate(4 560)">
<title>G</title>
<polygon fill="white" stroke="none" points="-4,4 -4,-560 1819.38,-560 1819.38,4 -4,4"/>
<!-- mgmt_a -->
<g id="node1" class="node">
<title>mgmt_a</title>
<polygon fill="#8194a0" stroke="none" stroke-dasharray="5,2" points="512.75,-426 424,-426 424,-390 512.75,-390 512.75,-426"/>
<text text-anchor="middle" x="468.38" y="-403.73" font-family="Times,serif" font-size="12.00" fill="#ffffff">Management A</text>
</g>
<!-- mgmt_a_a -->
<g id="node2" class="node">
<title>mgmt_a_a</title>
<polygon fill="#8194a0" stroke="none" stroke-dasharray="5,2" points="100.75,-296 0,-296 0,-260 100.75,-260 100.75,-296"/>
<text text-anchor="middle" x="50.38" y="-273.73" font-family="Times,serif" font-size="12.00" fill="#ffffff">Management A/A</text>
</g>
<!-- mgmt_a&#45;&gt;mgmt_a_a -->
<g id="edge2" class="edge">
<title>mgmt_a&#45;&gt;mgmt_a_a</title>
<path fill="none" stroke="#2b303a" d="M424.04,-393.42C348.96,-370.43 196.67,-323.8 111.51,-297.72"/>
<polygon fill="#2b303a" stroke="#2b303a" points="112.75,-294.44 102.16,-294.86 110.7,-301.13 112.75,-294.44"/>
</g>
<!-- mgmt_a_b -->
<g id="node3" class="node">
<title>mgmt_a_b</title>
<polygon fill="#8194a0" stroke="none" stroke-dasharray="5,2" points="229.38,-296 129.38,-296 129.38,-260 229.38,-260 229.38,-296"/>
<text text-anchor="middle" x="179.38" y="-273.73" font-family="Times,serif" font-size="12.00" fill="#ffffff">Management A/B</text>
</g>
<!-- mgmt_a&#45;&gt;mgmt_a_b -->
<g id="edge3" class="edge">
<title>mgmt_a&#45;&gt;mgmt_a_b</title>
<path fill="none" stroke="#2b303a" d="M430,-390C377.82,-366.89 284.49,-325.55 227.63,-300.37"/>
<polygon fill="#2b303a" stroke="#2b303a" points="229.4,-297.33 218.83,-296.48 226.56,-303.73 229.4,-297.33"/>
</g>
<!-- drone_01 -->
<g id="node10" class="node">
<title>drone_01</title>
<polygon fill="#002a41" stroke="none" stroke-dasharray="5,2" points="305.38,-296 251.38,-296 251.38,-260 305.38,-260 305.38,-296"/>
<text text-anchor="middle" x="278.38" y="-273.73" font-family="Times,serif" font-size="12.00" fill="#ffffff">Drone</text>
</g>
<!-- mgmt_a&#45;&gt;drone_01 -->
<g id="edge9" class="edge">
<title>mgmt_a&#45;&gt;drone_01</title>
<path fill="none" stroke="#2b303a" d="M443.14,-390C409.69,-367.47 350.52,-327.6 312.93,-302.28"/>
<polygon fill="#2b303a" stroke="#2b303a" points="314.91,-299.39 304.66,-296.71 311,-305.2 314.91,-299.39"/>
</g>
<!-- drone_19 -->
<g id="node28" class="node">
<title>drone_19</title>
<polygon fill="#002a41" stroke="none" stroke-dasharray="5,2" points="381.38,-296 327.38,-296 327.38,-260 381.38,-260 381.38,-296"/>
<text text-anchor="middle" x="354.38" y="-273.73" font-family="Times,serif" font-size="12.00" fill="#ffffff">Drone</text>
</g>
<!-- mgmt_a&#45;&gt;drone_19 -->
<g id="edge27" class="edge">
<title>mgmt_a&#45;&gt;drone_19</title>
<path fill="none" stroke="#2b303a" d="M453.24,-390C433.62,-367.98 399.27,-329.41 376.67,-304.04"/>
<polygon fill="#2b303a" stroke="#2b303a" points="379.48,-301.93 370.22,-296.79 374.26,-306.59 379.48,-301.93"/>
</g>
<!-- drone_20 -->
<g id="node29" class="node">
<title>drone_20</title>
<polygon fill="#002a41" stroke="none" stroke-dasharray="5,2" points="457.38,-296 403.38,-296 403.38,-260 457.38,-260 457.38,-296"/>
<text text-anchor="middle" x="430.38" y="-273.73" font-family="Times,serif" font-size="12.00" fill="#ffffff">Drone</text>
</g>
<!-- mgmt_a&#45;&gt;drone_20 -->
<g id="edge28" class="edge">
<title>mgmt_a&#45;&gt;drone_20</title>
<path fill="none" stroke="#2b303a" d="M463.33,-390C456.99,-368.65 446.04,-331.76 438.51,-306.4"/>
<polygon fill="#2b303a" stroke="#2b303a" points="441.95,-305.7 435.75,-297.11 435.24,-307.69 441.95,-305.7"/>
</g>
<!-- drone_21 -->
<g id="node30" class="node">
<title>drone_21</title>
<polygon fill="#002a41" stroke="none" stroke-dasharray="5,2" points="533.38,-296 479.38,-296 479.38,-260 533.38,-260 533.38,-296"/>
<text text-anchor="middle" x="506.38" y="-273.73" font-family="Times,serif" font-size="12.00" fill="#ffffff">Drone</text>
</g>
<!-- mgmt_a&#45;&gt;drone_21 -->
<g id="edge29" class="edge">
<title>mgmt_a&#45;&gt;drone_21</title>
<path fill="none" stroke="#2b303a" d="M473.42,-390C479.76,-368.65 490.71,-331.76 498.24,-306.4"/>
<polygon fill="#2b303a" stroke="#2b303a" points="501.51,-307.69 501,-297.11 494.8,-305.7 501.51,-307.69"/>
</g>
<!-- drone_22 -->
<g id="node31" class="node">
<title>drone_22</title>
<polygon fill="#002a41" stroke="none" stroke-dasharray="5,2" points="609.38,-296 555.38,-296 555.38,-260 609.38,-260 609.38,-296"/>
<text text-anchor="middle" x="582.38" y="-273.73" font-family="Times,serif" font-size="12.00" fill="#ffffff">Drone</text>
</g>
<!-- mgmt_a&#45;&gt;drone_22 -->
<g id="edge30" class="edge">
<title>mgmt_a&#45;&gt;drone_22</title>
<path fill="none" stroke="#2b303a" d="M483.51,-390C503.13,-367.98 537.48,-329.41 560.08,-304.04"/>
<polygon fill="#2b303a" stroke="#2b303a" points="562.49,-306.59 566.53,-296.79 557.27,-301.93 562.49,-306.59"/>
</g>
<!-- drone_23 -->
<g id="node32" class="node">
<title>drone_23</title>
<polygon fill="#002a41" stroke="none" stroke-dasharray="5,2" points="685.38,-296 631.38,-296 631.38,-260 685.38,-260 685.38,-296"/>
<text text-anchor="middle" x="658.38" y="-273.73" font-family="Times,serif" font-size="12.00" fill="#ffffff">Drone</text>
</g>
<!-- mgmt_a&#45;&gt;drone_23 -->
<g id="edge31" class="edge">
<title>mgmt_a&#45;&gt;drone_23</title>
<path fill="none" stroke="#2b303a" d="M493.61,-390C527.06,-367.47 586.23,-327.6 623.82,-302.28"/>
<polygon fill="#2b303a" stroke="#2b303a" points="625.75,-305.2 632.09,-296.71 621.84,-299.39 625.75,-305.2"/>
</g>
<!-- drone_24 -->
<g id="node33" class="node">
<title>drone_24</title>
<polygon fill="#002a41" stroke="none" stroke-dasharray="5,2" points="761.38,-296 707.38,-296 707.38,-260 761.38,-260 761.38,-296"/>
<text text-anchor="middle" x="734.38" y="-273.73" font-family="Times,serif" font-size="12.00" fill="#ffffff">Drone</text>
</g>
<!-- mgmt_a&#45;&gt;drone_24 -->
<g id="edge32" class="edge">
<title>mgmt_a&#45;&gt;drone_24</title>
<path fill="none" stroke="#2b303a" d="M503.7,-390C554.1,-365.75 646.21,-321.43 697.47,-296.76"/>
<polygon fill="#2b303a" stroke="#2b303a" points="698.9,-299.96 706.39,-292.47 695.86,-293.65 698.9,-299.96"/>
</g>
<!-- drone_02 -->
<g id="node11" class="node">
<title>drone_02</title>
<polygon fill="#002a41" stroke="none" stroke-dasharray="5,2" points="62.38,-166 8.38,-166 8.38,-130 62.38,-130 62.38,-166"/>
<text text-anchor="middle" x="35.38" y="-143.72" font-family="Times,serif" font-size="12.00" fill="#ffffff">Drone</text>
</g>
<!-- mgmt_a_a&#45;&gt;drone_02 -->
<g id="edge10" class="edge">
<title>mgmt_a_a&#45;&gt;drone_02</title>
<path fill="none" stroke="#2b303a" d="M48.38,-260C45.9,-238.85 41.64,-202.42 38.67,-177.09"/>
<polygon fill="#2b303a" stroke="#2b303a" points="42.14,-176.69 37.5,-167.16 35.19,-177.5 42.14,-176.69"/>
</g>
<!-- drone_03 -->
<g id="node12" class="node">
<title>drone_03</title>
<polygon fill="#002a41" stroke="none" stroke-dasharray="5,2" points="138.38,-166 84.38,-166 84.38,-130 138.38,-130 138.38,-166"/>
<text text-anchor="middle" x="111.38" y="-143.72" font-family="Times,serif" font-size="12.00" fill="#ffffff">Drone</text>
</g>
<!-- mgmt_a_b&#45;&gt;drone_03 -->
<g id="edge11" class="edge">
<title>mgmt_a_b&#45;&gt;drone_03</title>
<path fill="none" stroke="#2b303a" d="M170.35,-260C158.9,-238.46 139.05,-201.09 125.57,-175.72"/>
<polygon fill="#2b303a" stroke="#2b303a" points="128.72,-174.19 120.94,-167 122.54,-177.47 128.72,-174.19"/>
</g>
<!-- drone_04 -->
<g id="node13" class="node">
<title>drone_04</title>
<polygon fill="#002a41" stroke="none" stroke-dasharray="5,2" points="214.38,-166 160.38,-166 160.38,-130 214.38,-130 214.38,-166"/>
<text text-anchor="middle" x="187.38" y="-143.72" font-family="Times,serif" font-size="12.00" fill="#ffffff">Drone</text>
</g>
<!-- mgmt_a_b&#45;&gt;drone_04 -->
<g id="edge12" class="edge">
<title>mgmt_a_b&#45;&gt;drone_04</title>
<path fill="none" stroke="#2b303a" d="M180.44,-260C181.76,-238.85 184.04,-202.42 185.62,-177.09"/>
<polygon fill="#2b303a" stroke="#2b303a" points="189.11,-177.37 186.24,-167.17 182.12,-176.93 189.11,-177.37"/>
</g>
<!-- drone_05 -->
<g id="node14" class="node">
<title>drone_05</title>
<polygon fill="#002a41" stroke="none" stroke-dasharray="5,2" points="290.38,-166 236.38,-166 236.38,-130 290.38,-130 290.38,-166"/>
<text text-anchor="middle" x="263.38" y="-143.72" font-family="Times,serif" font-size="12.00" fill="#ffffff">Drone</text>
</g>
<!-- mgmt_a_b&#45;&gt;drone_05 -->
<g id="edge13" class="edge">
<title>mgmt_a_b&#45;&gt;drone_05</title>
<path fill="none" stroke="#2b303a" d="M190.53,-260C204.79,-238.27 229.63,-200.42 246.29,-175.04"/>
<polygon fill="#2b303a" stroke="#2b303a" points="249.05,-177.21 251.61,-166.93 243.2,-173.37 249.05,-177.21"/>
</g>
<!-- mgmt_b -->
<g id="node4" class="node">
<title>mgmt_b</title>
<polygon fill="#8194a0" stroke="none" stroke-dasharray="5,2" points="1528.75,-426 1440,-426 1440,-390 1528.75,-390 1528.75,-426"/>
<text text-anchor="middle" x="1484.38" y="-403.73" font-family="Times,serif" font-size="12.00" fill="#ffffff">Management B</text>
</g>
<!-- mgmt_b_a -->
<g id="node5" class="node">
<title>mgmt_b_a</title>
<polygon fill="#8194a0" stroke="none" stroke-dasharray="5,2" points="883.75,-296 783,-296 783,-260 883.75,-260 883.75,-296"/>
<text text-anchor="middle" x="833.38" y="-273.73" font-family="Times,serif" font-size="12.00" fill="#ffffff">Management B/A</text>
</g>
<!-- mgmt_b&#45;&gt;mgmt_b_a -->
<g id="edge5" class="edge">
<title>mgmt_b&#45;&gt;mgmt_b_a</title>
<path fill="none" stroke="#2b303a" d="M1440.14,-398.3C1326.55,-375.97 1024.4,-316.56 894.33,-290.98"/>
<polygon fill="#2b303a" stroke="#2b303a" points="895.38,-287.62 884.89,-289.13 894.03,-294.49 895.38,-287.62"/>
</g>
<!-- mgmt_b_b -->
<g id="node7" class="node">
<title>mgmt_b_b</title>
<polygon fill="#8194a0" stroke="none" stroke-dasharray="5,2" points="1359.38,-296 1259.38,-296 1259.38,-260 1359.38,-260 1359.38,-296"/>
<text text-anchor="middle" x="1309.38" y="-273.73" font-family="Times,serif" font-size="12.00" fill="#ffffff">Management B/B</text>
</g>
<!-- mgmt_b&#45;&gt;mgmt_b_b -->
<g id="edge7" class="edge">
<title>mgmt_b&#45;&gt;mgmt_b_b</title>
<path fill="none" stroke="#2b303a" d="M1461.14,-390C1430.46,-367.56 1376.29,-327.94 1341.65,-302.6"/>
<polygon fill="#2b303a" stroke="#2b303a" points="1343.79,-299.84 1333.65,-296.76 1339.66,-305.49 1343.79,-299.84"/>
</g>
<!-- drone_25 -->
<g id="node34" class="node">
<title>drone_25</title>
<polygon fill="#002a41" stroke="none" stroke-dasharray="5,2" points="1435.38,-296 1381.38,-296 1381.38,-260 1435.38,-260 1435.38,-296"/>
<text text-anchor="middle" x="1408.38" y="-273.73" font-family="Times,serif" font-size="12.00" fill="#ffffff">Drone</text>
</g>
<!-- mgmt_b&#45;&gt;drone_25 -->
<g id="edge33" class="edge">
<title>mgmt_b&#45;&gt;drone_25</title>
<path fill="none" stroke="#2b303a" d="M1474.28,-390C1461.44,-368.37 1439.1,-330.76 1424.04,-305.38"/>
<polygon fill="#2b303a" stroke="#2b303a" points="1427.16,-303.77 1419.04,-296.96 1421.14,-307.35 1427.16,-303.77"/>
</g>
<!-- drone_26 -->
<g id="node35" class="node">
<title>drone_26</title>
<polygon fill="#002a41" stroke="none" stroke-dasharray="5,2" points="1511.38,-296 1457.38,-296 1457.38,-260 1511.38,-260 1511.38,-296"/>
<text text-anchor="middle" x="1484.38" y="-273.73" font-family="Times,serif" font-size="12.00" fill="#ffffff">Drone</text>
</g>
<!-- mgmt_b&#45;&gt;drone_26 -->
<g id="edge34" class="edge">
<title>mgmt_b&#45;&gt;drone_26</title>
<path fill="none" stroke="#2b303a" d="M1484.38,-390C1484.38,-368.85 1484.38,-332.42 1484.38,-307.09"/>
<polygon fill="#2b303a" stroke="#2b303a" points="1487.88,-307.17 1484.38,-297.17 1480.88,-307.17 1487.88,-307.17"/>
</g>
<!-- drone_27 -->
<g id="node36" class="node">
<title>drone_27</title>
<polygon fill="#002a41" stroke="none" stroke-dasharray="5,2" points="1587.38,-296 1533.38,-296 1533.38,-260 1587.38,-260 1587.38,-296"/>
<text text-anchor="middle" x="1560.38" y="-273.73" font-family="Times,serif" font-size="12.00" fill="#ffffff">Drone</text>
</g>
<!-- mgmt_b&#45;&gt;drone_27 -->
<g id="edge35" class="edge">
<title>mgmt_b&#45;&gt;drone_27</title>
<path fill="none" stroke="#2b303a" d="M1494.47,-390C1507.31,-368.37 1529.65,-330.76 1544.71,-305.38"/>
<polygon fill="#2b303a" stroke="#2b303a" points="1547.61,-307.35 1549.71,-296.96 1541.59,-303.77 1547.61,-307.35"/>
</g>
<!-- drone_28 -->
<g id="node37" class="node">
<title>drone_28</title>
<polygon fill="#002a41" stroke="none" stroke-dasharray="5,2" points="1663.38,-296 1609.38,-296 1609.38,-260 1663.38,-260 1663.38,-296"/>
<text text-anchor="middle" x="1636.38" y="-273.73" font-family="Times,serif" font-size="12.00" fill="#ffffff">Drone</text>
</g>
<!-- mgmt_b&#45;&gt;drone_28 -->
<g id="edge36" class="edge">
<title>mgmt_b&#45;&gt;drone_28</title>
<path fill="none" stroke="#2b303a" d="M1504.56,-390C1531.05,-367.69 1577.71,-328.4 1607.82,-303.05"/>
<polygon fill="#2b303a" stroke="#2b303a" points="1610.04,-305.75 1615.43,-296.64 1605.53,-300.4 1610.04,-305.75"/>
</g>
<!-- drone_29 -->
<g id="node38" class="node">
<title>drone_29</title>
<polygon fill="#002a41" stroke="none" stroke-dasharray="5,2" points="1739.38,-296 1685.38,-296 1685.38,-260 1739.38,-260 1739.38,-296"/>
<text text-anchor="middle" x="1712.38" y="-273.73" font-family="Times,serif" font-size="12.00" fill="#ffffff">Drone</text>
</g>
<!-- mgmt_b&#45;&gt;drone_29 -->
<g id="edge37" class="edge">
<title>mgmt_b&#45;&gt;drone_29</title>
<path fill="none" stroke="#2b303a" d="M1514.65,-390C1556.23,-366.66 1630.93,-324.72 1675.65,-299.62"/>
<polygon fill="#2b303a" stroke="#2b303a" points="1677.2,-302.76 1684.21,-294.81 1673.77,-296.66 1677.2,-302.76"/>
</g>
<!-- drone_30 -->
<g id="node39" class="node">
<title>drone_30</title>
<polygon fill="#002a41" stroke="none" stroke-dasharray="5,2" points="1815.38,-296 1761.38,-296 1761.38,-260 1815.38,-260 1815.38,-296"/>
<text text-anchor="middle" x="1788.38" y="-273.73" font-family="Times,serif" font-size="12.00" fill="#ffffff">Drone</text>
</g>
<!-- mgmt_b&#45;&gt;drone_30 -->
<g id="edge38" class="edge">
<title>mgmt_b&#45;&gt;drone_30</title>
<path fill="none" stroke="#2b303a" d="M1525.98,-390.02C1578.45,-368.52 1671.37,-330.15 1750.38,-296 1750.6,-295.9 1750.82,-295.81 1751.05,-295.71"/>
<polygon fill="#2b303a" stroke="#2b303a" points="1752.29,-298.99 1760.04,-291.77 1749.48,-292.58 1752.29,-298.99"/>
</g>
<!-- mgmt_b_a_b -->
<g id="node6" class="node">
<title>mgmt_b_a_b</title>
<polygon fill="#8194a0" stroke="none" stroke-dasharray="5,2" points="518.38,-166 406.38,-166 406.38,-130 518.38,-130 518.38,-166"/>
<text text-anchor="middle" x="462.38" y="-143.72" font-family="Times,serif" font-size="12.00" fill="#ffffff">Management B/A/B</text>
</g>
<!-- mgmt_b_a&#45;&gt;mgmt_b_a_b -->
<g id="edge6" class="edge">
<title>mgmt_b_a&#45;&gt;mgmt_b_a_b</title>
<path fill="none" stroke="#2b303a" d="M784.11,-260C716.52,-236.68 595.16,-194.81 522.36,-169.7"/>
<polygon fill="#2b303a" stroke="#2b303a" points="523.57,-166.41 512.98,-166.46 521.29,-173.03 523.57,-166.41"/>
</g>
<!-- drone_06 -->
<g id="node15" class="node">
<title>drone_06</title>
<polygon fill="#002a41" stroke="none" stroke-dasharray="5,2" points="594.38,-166 540.38,-166 540.38,-130 594.38,-130 594.38,-166"/>
<text text-anchor="middle" x="567.38" y="-143.72" font-family="Times,serif" font-size="12.00" fill="#ffffff">Drone</text>
</g>
<!-- mgmt_b_a&#45;&gt;drone_06 -->
<g id="edge14" class="edge">
<title>mgmt_b_a&#45;&gt;drone_06</title>
<path fill="none" stroke="#2b303a" d="M798.05,-260C747.65,-235.75 655.54,-191.43 604.28,-166.76"/>
<polygon fill="#2b303a" stroke="#2b303a" points="605.89,-163.65 595.36,-162.47 602.85,-169.96 605.89,-163.65"/>
</g>
<!-- drone_07 -->
<g id="node16" class="node">
<title>drone_07</title>
<polygon fill="#002a41" stroke="none" stroke-dasharray="5,2" points="670.38,-166 616.38,-166 616.38,-130 670.38,-130 670.38,-166"/>
<text text-anchor="middle" x="643.38" y="-143.72" font-family="Times,serif" font-size="12.00" fill="#ffffff">Drone</text>
</g>
<!-- mgmt_b_a&#45;&gt;drone_07 -->
<g id="edge15" class="edge">
<title>mgmt_b_a&#45;&gt;drone_07</title>
<path fill="none" stroke="#2b303a" d="M808.14,-260C774.69,-237.47 715.52,-197.6 677.93,-172.28"/>
<polygon fill="#2b303a" stroke="#2b303a" points="679.91,-169.39 669.66,-166.71 676,-175.2 679.91,-169.39"/>
</g>
<!-- drone_08 -->
<g id="node17" class="node">
<title>drone_08</title>
<polygon fill="#002a41" stroke="none" stroke-dasharray="5,2" points="746.38,-166 692.38,-166 692.38,-130 746.38,-130 746.38,-166"/>
<text text-anchor="middle" x="719.38" y="-143.72" font-family="Times,serif" font-size="12.00" fill="#ffffff">Drone</text>
</g>
<!-- mgmt_b_a&#45;&gt;drone_08 -->
<g id="edge16" class="edge">
<title>mgmt_b_a&#45;&gt;drone_08</title>
<path fill="none" stroke="#2b303a" d="M818.24,-260C798.62,-237.98 764.27,-199.41 741.67,-174.04"/>
<polygon fill="#2b303a" stroke="#2b303a" points="744.48,-171.93 735.22,-166.79 739.26,-176.59 744.48,-171.93"/>
</g>
<!-- drone_09 -->
<g id="node18" class="node">
<title>drone_09</title>
<polygon fill="#002a41" stroke="none" stroke-dasharray="5,2" points="822.38,-166 768.38,-166 768.38,-130 822.38,-130 822.38,-166"/>
<text text-anchor="middle" x="795.38" y="-143.72" font-family="Times,serif" font-size="12.00" fill="#ffffff">Drone</text>
</g>
<!-- mgmt_b_a&#45;&gt;drone_09 -->
<g id="edge17" class="edge">
<title>mgmt_b_a&#45;&gt;drone_09</title>
<path fill="none" stroke="#2b303a" d="M828.33,-260C821.99,-238.65 811.04,-201.76 803.51,-176.4"/>
<polygon fill="#2b303a" stroke="#2b303a" points="806.95,-175.7 800.75,-167.11 800.24,-177.69 806.95,-175.7"/>
</g>
<!-- drone_10 -->
<g id="node19" class="node">
<title>drone_10</title>
<polygon fill="#002a41" stroke="none" stroke-dasharray="5,2" points="898.38,-166 844.38,-166 844.38,-130 898.38,-130 898.38,-166"/>
<text text-anchor="middle" x="871.38" y="-143.72" font-family="Times,serif" font-size="12.00" fill="#ffffff">Drone</text>
</g>
<!-- mgmt_b_a&#45;&gt;drone_10 -->
<g id="edge18" class="edge">
<title>mgmt_b_a&#45;&gt;drone_10</title>
<path fill="none" stroke="#2b303a" d="M838.42,-260C844.76,-238.65 855.71,-201.76 863.24,-176.4"/>
<polygon fill="#2b303a" stroke="#2b303a" points="866.51,-177.69 866,-167.11 859.8,-175.7 866.51,-177.69"/>
</g>
<!-- drone_11 -->
<g id="node20" class="node">
<title>drone_11</title>
<polygon fill="#002a41" stroke="none" stroke-dasharray="5,2" points="974.38,-166 920.38,-166 920.38,-130 974.38,-130 974.38,-166"/>
<text text-anchor="middle" x="947.38" y="-143.72" font-family="Times,serif" font-size="12.00" fill="#ffffff">Drone</text>
</g>
<!-- mgmt_b_a&#45;&gt;drone_11 -->
<g id="edge19" class="edge">
<title>mgmt_b_a&#45;&gt;drone_11</title>
<path fill="none" stroke="#2b303a" d="M848.51,-260C868.13,-237.98 902.48,-199.41 925.08,-174.04"/>
<polygon fill="#2b303a" stroke="#2b303a" points="927.49,-176.59 931.53,-166.79 922.27,-171.93 927.49,-176.59"/>
</g>
<!-- drone_12 -->
<g id="node21" class="node">
<title>drone_12</title>
<polygon fill="#002a41" stroke="none" stroke-dasharray="5,2" points="1050.38,-166 996.38,-166 996.38,-130 1050.38,-130 1050.38,-166"/>
<text text-anchor="middle" x="1023.38" y="-143.72" font-family="Times,serif" font-size="12.00" fill="#ffffff">Drone</text>
</g>
<!-- mgmt_b_a&#45;&gt;drone_12 -->
<g id="edge20" class="edge">
<title>mgmt_b_a&#45;&gt;drone_12</title>
<path fill="none" stroke="#2b303a" d="M858.61,-260C892.06,-237.47 951.23,-197.6 988.82,-172.28"/>
<polygon fill="#2b303a" stroke="#2b303a" points="990.75,-175.2 997.09,-166.71 986.84,-169.39 990.75,-175.2"/>
</g>
<!-- drone_31 -->
<g id="node40" class="node">
<title>drone_31</title>
<polygon fill="#002a41" stroke="none" stroke-dasharray="5,2" points="299.38,-36 245.38,-36 245.38,0 299.38,0 299.38,-36"/>
<text text-anchor="middle" x="272.38" y="-13.72" font-family="Times,serif" font-size="12.00" fill="#ffffff">Drone</text>
</g>
<!-- mgmt_b_a_b&#45;&gt;drone_31 -->
<g id="edge39" class="edge">
<title>mgmt_b_a_b&#45;&gt;drone_31</title>
<path fill="none" stroke="#2b303a" d="M437.14,-130C403.69,-107.47 344.52,-67.6 306.93,-42.28"/>
<polygon fill="#2b303a" stroke="#2b303a" points="308.91,-39.39 298.66,-36.71 305,-45.2 308.91,-39.39"/>
</g>
<!-- drone_32 -->
<g id="node41" class="node">
<title>drone_32</title>
<polygon fill="#002a41" stroke="none" stroke-dasharray="5,2" points="375.38,-36 321.38,-36 321.38,0 375.38,0 375.38,-36"/>
<text text-anchor="middle" x="348.38" y="-13.72" font-family="Times,serif" font-size="12.00" fill="#ffffff">Drone</text>
</g>
<!-- mgmt_b_a_b&#45;&gt;drone_32 -->
<g id="edge40" class="edge">
<title>mgmt_b_a_b&#45;&gt;drone_32</title>
<path fill="none" stroke="#2b303a" d="M447.24,-130C427.62,-107.98 393.27,-69.41 370.67,-44.04"/>
<polygon fill="#2b303a" stroke="#2b303a" points="373.48,-41.93 364.22,-36.79 368.26,-46.59 373.48,-41.93"/>
</g>
<!-- drone_33 -->
<g id="node42" class="node">
<title>drone_33</title>
<polygon fill="#002a41" stroke="none" stroke-dasharray="5,2" points="451.38,-36 397.38,-36 397.38,0 451.38,0 451.38,-36"/>
<text text-anchor="middle" x="424.38" y="-13.72" font-family="Times,serif" font-size="12.00" fill="#ffffff">Drone</text>
</g>
<!-- mgmt_b_a_b&#45;&gt;drone_33 -->
<g id="edge41" class="edge">
<title>mgmt_b_a_b&#45;&gt;drone_33</title>
<path fill="none" stroke="#2b303a" d="M457.33,-130C450.99,-108.65 440.04,-71.76 432.51,-46.4"/>
<polygon fill="#2b303a" stroke="#2b303a" points="435.95,-45.7 429.75,-37.11 429.24,-47.69 435.95,-45.7"/>
</g>
<!-- drone_34 -->
<g id="node43" class="node">
<title>drone_34</title>
<polygon fill="#002a41" stroke="none" stroke-dasharray="5,2" points="527.38,-36 473.38,-36 473.38,0 527.38,0 527.38,-36"/>
<text text-anchor="middle" x="500.38" y="-13.72" font-family="Times,serif" font-size="12.00" fill="#ffffff">Drone</text>
</g>
<!-- mgmt_b_a_b&#45;&gt;drone_34 -->
<g id="edge42" class="edge">
<title>mgmt_b_a_b&#45;&gt;drone_34</title>
<path fill="none" stroke="#2b303a" d="M467.42,-130C473.76,-108.65 484.71,-71.76 492.24,-46.4"/>
<polygon fill="#2b303a" stroke="#2b303a" points="495.51,-47.69 495,-37.11 488.8,-45.7 495.51,-47.69"/>
</g>
<!-- drone_35 -->
<g id="node44" class="node">
<title>drone_35</title>
<polygon fill="#002a41" stroke="none" stroke-dasharray="5,2" points="603.38,-36 549.38,-36 549.38,0 603.38,0 603.38,-36"/>
<text text-anchor="middle" x="576.38" y="-13.72" font-family="Times,serif" font-size="12.00" fill="#ffffff">Drone</text>
</g>
<!-- mgmt_b_a_b&#45;&gt;drone_35 -->
<g id="edge43" class="edge">
<title>mgmt_b_a_b&#45;&gt;drone_35</title>
<path fill="none" stroke="#2b303a" d="M477.51,-130C497.13,-107.98 531.48,-69.41 554.08,-44.04"/>
<polygon fill="#2b303a" stroke="#2b303a" points="556.49,-46.59 560.53,-36.79 551.27,-41.93 556.49,-46.59"/>
</g>
<!-- drone_36 -->
<g id="node45" class="node">
<title>drone_36</title>
<polygon fill="#002a41" stroke="none" stroke-dasharray="5,2" points="679.38,-36 625.38,-36 625.38,0 679.38,0 679.38,-36"/>
<text text-anchor="middle" x="652.38" y="-13.72" font-family="Times,serif" font-size="12.00" fill="#ffffff">Drone</text>
</g>
<!-- mgmt_b_a_b&#45;&gt;drone_36 -->
<g id="edge44" class="edge">
<title>mgmt_b_a_b&#45;&gt;drone_36</title>
<path fill="none" stroke="#2b303a" d="M487.61,-130C521.06,-107.47 580.23,-67.6 617.82,-42.28"/>
<polygon fill="#2b303a" stroke="#2b303a" points="619.75,-45.2 626.09,-36.71 615.84,-39.39 619.75,-45.2"/>
</g>
<!-- mgmt_b_b_a -->
<g id="node8" class="node">
<title>mgmt_b_b_a</title>
<polygon fill="#8194a0" stroke="none" stroke-dasharray="5,2" points="1184.38,-166 1072.38,-166 1072.38,-130 1184.38,-130 1184.38,-166"/>
<text text-anchor="middle" x="1128.38" y="-143.72" font-family="Times,serif" font-size="12.00" fill="#ffffff">Management B/B/A</text>
</g>
<!-- mgmt_b_b&#45;&gt;mgmt_b_b_a -->
<g id="edge8" class="edge">
<title>mgmt_b_b&#45;&gt;mgmt_b_b_a</title>
<path fill="none" stroke="#2b303a" d="M1285.34,-260C1253.47,-237.47 1197.1,-197.6 1161.3,-172.28"/>
<polygon fill="#2b303a" stroke="#2b303a" points="1163.64,-169.65 1153.46,-166.74 1159.6,-175.37 1163.64,-169.65"/>
</g>
<!-- drone_13 -->
<g id="node22" class="node">
<title>drone_13</title>
<polygon fill="#002a41" stroke="none" stroke-dasharray="5,2" points="1260.38,-166 1206.38,-166 1206.38,-130 1260.38,-130 1260.38,-166"/>
<text text-anchor="middle" x="1233.38" y="-143.72" font-family="Times,serif" font-size="12.00" fill="#ffffff">Drone</text>
</g>
<!-- mgmt_b_b&#45;&gt;drone_13 -->
<g id="edge21" class="edge">
<title>mgmt_b_b&#45;&gt;drone_13</title>
<path fill="none" stroke="#2b303a" d="M1299.28,-260C1286.44,-238.37 1264.1,-200.76 1249.04,-175.38"/>
<polygon fill="#2b303a" stroke="#2b303a" points="1252.16,-173.77 1244.04,-166.96 1246.14,-177.35 1252.16,-173.77"/>
</g>
<!-- drone_14 -->
<g id="node23" class="node">
<title>drone_14</title>
<polygon fill="#002a41" stroke="none" stroke-dasharray="5,2" points="1336.38,-166 1282.38,-166 1282.38,-130 1336.38,-130 1336.38,-166"/>
<text text-anchor="middle" x="1309.38" y="-143.72" font-family="Times,serif" font-size="12.00" fill="#ffffff">Drone</text>
</g>
<!-- mgmt_b_b&#45;&gt;drone_14 -->
<g id="edge22" class="edge">
<title>mgmt_b_b&#45;&gt;drone_14</title>
<path fill="none" stroke="#2b303a" d="M1309.38,-260C1309.38,-238.85 1309.38,-202.42 1309.38,-177.09"/>
<polygon fill="#2b303a" stroke="#2b303a" points="1312.88,-177.17 1309.38,-167.17 1305.88,-177.17 1312.88,-177.17"/>
</g>
<!-- drone_15 -->
<g id="node24" class="node">
<title>drone_15</title>
<polygon fill="#002a41" stroke="none" stroke-dasharray="5,2" points="1412.38,-166 1358.38,-166 1358.38,-130 1412.38,-130 1412.38,-166"/>
<text text-anchor="middle" x="1385.38" y="-143.72" font-family="Times,serif" font-size="12.00" fill="#ffffff">Drone</text>
</g>
<!-- mgmt_b_b&#45;&gt;drone_15 -->
<g id="edge23" class="edge">
<title>mgmt_b_b&#45;&gt;drone_15</title>
<path fill="none" stroke="#2b303a" d="M1319.47,-260C1332.31,-238.37 1354.65,-200.76 1369.71,-175.38"/>
<polygon fill="#2b303a" stroke="#2b303a" points="1372.61,-177.35 1374.71,-166.96 1366.59,-173.77 1372.61,-177.35"/>
</g>
<!-- drone_16 -->
<g id="node25" class="node">
<title>drone_16</title>
<polygon fill="#002a41" stroke="none" stroke-dasharray="5,2" points="1488.38,-166 1434.38,-166 1434.38,-130 1488.38,-130 1488.38,-166"/>
<text text-anchor="middle" x="1461.38" y="-143.72" font-family="Times,serif" font-size="12.00" fill="#ffffff">Drone</text>
</g>
<!-- mgmt_b_b&#45;&gt;drone_16 -->
<g id="edge24" class="edge">
<title>mgmt_b_b&#45;&gt;drone_16</title>
<path fill="none" stroke="#2b303a" d="M1329.56,-260C1356.05,-237.69 1402.71,-198.4 1432.82,-173.05"/>
<polygon fill="#2b303a" stroke="#2b303a" points="1435.04,-175.75 1440.43,-166.64 1430.53,-170.4 1435.04,-175.75"/>
</g>
<!-- drone_17 -->
<g id="node26" class="node">
<title>drone_17</title>
<polygon fill="#002a41" stroke="none" stroke-dasharray="5,2" points="1564.38,-166 1510.38,-166 1510.38,-130 1564.38,-130 1564.38,-166"/>
<text text-anchor="middle" x="1537.38" y="-143.72" font-family="Times,serif" font-size="12.00" fill="#ffffff">Drone</text>
</g>
<!-- mgmt_b_b&#45;&gt;drone_17 -->
<g id="edge25" class="edge">
<title>mgmt_b_b&#45;&gt;drone_17</title>
<path fill="none" stroke="#2b303a" d="M1339.65,-260C1381.23,-236.66 1455.93,-194.72 1500.65,-169.62"/>
<polygon fill="#2b303a" stroke="#2b303a" points="1502.2,-172.76 1509.21,-164.81 1498.77,-166.66 1502.2,-172.76"/>
</g>
<!-- drone_18 -->
<g id="node27" class="node">
<title>drone_18</title>
<polygon fill="#002a41" stroke="none" stroke-dasharray="5,2" points="1640.38,-166 1586.38,-166 1586.38,-130 1640.38,-130 1640.38,-166"/>
<text text-anchor="middle" x="1613.38" y="-143.72" font-family="Times,serif" font-size="12.00" fill="#ffffff">Drone</text>
</g>
<!-- mgmt_b_b&#45;&gt;drone_18 -->
<g id="edge26" class="edge">
<title>mgmt_b_b&#45;&gt;drone_18</title>
<path fill="none" stroke="#2b303a" d="M1350.98,-260.02C1403.45,-238.52 1496.37,-200.15 1575.38,-166 1575.6,-165.9 1575.82,-165.81 1576.05,-165.71"/>
<polygon fill="#2b303a" stroke="#2b303a" points="1577.29,-168.99 1585.04,-161.77 1574.48,-162.58 1577.29,-168.99"/>
</g>
<!-- drone_37 -->
<g id="node46" class="node">
<title>drone_37</title>
<polygon fill="#002a41" stroke="none" stroke-dasharray="5,2" points="1041.38,-36 987.38,-36 987.38,0 1041.38,0 1041.38,-36"/>
<text text-anchor="middle" x="1014.38" y="-13.72" font-family="Times,serif" font-size="12.00" fill="#ffffff">Drone</text>
</g>
<!-- mgmt_b_b_a&#45;&gt;drone_37 -->
<g id="edge45" class="edge">
<title>mgmt_b_b_a&#45;&gt;drone_37</title>
<path fill="none" stroke="#2b303a" d="M1113.24,-130C1093.62,-107.98 1059.27,-69.41 1036.67,-44.04"/>
<polygon fill="#2b303a" stroke="#2b303a" points="1039.48,-41.93 1030.22,-36.79 1034.26,-46.59 1039.48,-41.93"/>
</g>
<!-- drone_38 -->
<g id="node47" class="node">
<title>drone_38</title>
<polygon fill="#002a41" stroke="none" stroke-dasharray="5,2" points="1117.38,-36 1063.38,-36 1063.38,0 1117.38,0 1117.38,-36"/>
<text text-anchor="middle" x="1090.38" y="-13.72" font-family="Times,serif" font-size="12.00" fill="#ffffff">Drone</text>
</g>
<!-- mgmt_b_b_a&#45;&gt;drone_38 -->
<g id="edge46" class="edge">
<title>mgmt_b_b_a&#45;&gt;drone_38</title>
<path fill="none" stroke="#2b303a" d="M1123.33,-130C1116.99,-108.65 1106.04,-71.76 1098.51,-46.4"/>
<polygon fill="#2b303a" stroke="#2b303a" points="1101.95,-45.7 1095.75,-37.11 1095.24,-47.69 1101.95,-45.7"/>
</g>
<!-- drone_39 -->
<g id="node48" class="node">
<title>drone_39</title>
<polygon fill="#002a41" stroke="none" stroke-dasharray="5,2" points="1193.38,-36 1139.38,-36 1139.38,0 1193.38,0 1193.38,-36"/>
<text text-anchor="middle" x="1166.38" y="-13.72" font-family="Times,serif" font-size="12.00" fill="#ffffff">Drone</text>
</g>
<!-- mgmt_b_b_a&#45;&gt;drone_39 -->
<g id="edge47" class="edge">
<title>mgmt_b_b_a&#45;&gt;drone_39</title>
<path fill="none" stroke="#2b303a" d="M1133.42,-130C1139.76,-108.65 1150.71,-71.76 1158.24,-46.4"/>
<polygon fill="#2b303a" stroke="#2b303a" points="1161.51,-47.69 1161,-37.11 1154.8,-45.7 1161.51,-47.69"/>
</g>
<!-- drone_40 -->
<g id="node49" class="node">
<title>drone_40</title>
<polygon fill="#002a41" stroke="none" stroke-dasharray="5,2" points="1269.38,-36 1215.38,-36 1215.38,0 1269.38,0 1269.38,-36"/>
<text text-anchor="middle" x="1242.38" y="-13.72" font-family="Times,serif" font-size="12.00" fill="#ffffff">Drone</text>
</g>
<!-- mgmt_b_b_a&#45;&gt;drone_40 -->
<g id="edge48" class="edge">
<title>mgmt_b_b_a&#45;&gt;drone_40</title>
<path fill="none" stroke="#2b303a" d="M1143.51,-130C1163.13,-107.98 1197.48,-69.41 1220.08,-44.04"/>
<polygon fill="#2b303a" stroke="#2b303a" points="1222.49,-46.59 1226.53,-36.79 1217.27,-41.93 1222.49,-46.59"/>
</g>
<!-- root -->
<g id="node9" class="node">
<title>root</title>
<polygon fill="#426070" stroke="none" stroke-dasharray="5,2" points="965.38,-556 911.38,-556 911.38,-520 965.38,-520 965.38,-556"/>
<text text-anchor="middle" x="938.38" y="-533.73" font-family="Times,serif" font-size="12.00" fill="#ffffff">Root</text>
</g>
<!-- root&#45;&gt;mgmt_a -->
<g id="edge1" class="edge">
<title>root&#45;&gt;mgmt_a</title>
<path fill="none" stroke="#2b303a" d="M911.42,-529.66C836.5,-509.25 624.64,-451.56 523.48,-424.01"/>
<polygon fill="#2b303a" stroke="#2b303a" points="524.61,-420.69 514.04,-421.44 522.77,-427.44 524.61,-420.69"/>
</g>
<!-- root&#45;&gt;mgmt_b -->
<g id="edge4" class="edge">
<title>root&#45;&gt;mgmt_b</title>
<path fill="none" stroke="#2b303a" d="M965.08,-530.74C1049.72,-510.9 1313.26,-449.12 1428.96,-421.99"/>
<polygon fill="#2b303a" stroke="#2b303a" points="1429.6,-425.44 1438.54,-419.74 1428.01,-418.62 1429.6,-425.44"/>
</g>
</g>
</svg>
